<svg xmlns="http://www.w3.org/2000/svg" xmlns:xlink="http://www.w3.org/1999/xlink" width="150" zoomAndPan="magnify" viewBox="0 0 112.5 37.5" height="50" preserveAspectRatio="xMidYMid meet" version="1.0"><defs><g/><clipPath id="54f5b55237"><path d="M 0.492188 0 L 111.511719 0 L 111.511719 37.007812 L 0.492188 37.007812 Z M 0.492188 0 " clip-rule="nonzero"/></clipPath><clipPath id="5161e7e206"><path d="M 104.929688 16.824219 L 110 16.824219 L 110 22 L 104.929688 22 Z M 104.929688 16.824219 " clip-rule="nonzero"/></clipPath></defs><g clip-path="url(#54f5b55237)"><path fill="#ffffff" d="M 0.492188 0 L 111.511719 0 L 111.511719 37.007812 L 0.492188 37.007812 Z M 0.492188 0 " fill-opacity="1" fill-rule="nonzero"/><path fill="#ffffff" d="M 0.492188 0 L 111.511719 0 L 111.511719 37.007812 L 0.492188 37.007812 Z M 0.492188 0 " fill-opacity="1" fill-rule="nonzero"/></g><g clip-path="url(#5161e7e206)"><path fill="#0389ff" d="M 107.335938 16.824219 C 108.664062 16.824219 109.742188 17.902344 109.742188 19.230469 C 109.742188 20.558594 108.664062 21.636719 107.335938 21.636719 C 106.007812 21.636719 104.929688 20.558594 104.929688 19.230469 C 104.929688 17.902344 106.007812 16.824219 107.335938 16.824219 Z M 107.335938 16.824219 " fill-opacity="1" fill-rule="evenodd"/></g><g fill="#000000" fill-opacity="1"><g transform="translate(5.675518, 20.695832)"><g><path d="M 11.25 -7.359375 L 11.0625 -7.359375 L 11.0625 -7.109375 L 11.4375 -7.109375 L 11.4375 -7.03125 L 11.296875 -7.03125 L 11.25 -6.703125 L 11.421875 -6.703125 C 11.410156 -6.679688 11.40625 -6.65625 11.40625 -6.625 L 11.171875 -6.625 C 11.160156 -6.570312 11.148438 -6.515625 11.140625 -6.453125 C 11.128906 -6.398438 11.113281 -6.347656 11.09375 -6.296875 C 11.09375 -6.253906 11.082031 -6.195312 11.0625 -6.125 L 10.90625 -6.125 L 10.796875 -5.890625 L 10.78125 -5.890625 C 10.769531 -5.828125 10.75 -5.769531 10.71875 -5.71875 C 10.6875 -5.664062 10.660156 -5.613281 10.640625 -5.5625 L 10.671875 -5.5625 L 10.625 -5.46875 L 10.765625 -5.46875 C 10.734375 -5.414062 10.703125 -5.363281 10.671875 -5.3125 C 10.640625 -5.257812 10.601562 -5.203125 10.5625 -5.140625 L 10.671875 -5.140625 C 10.628906 -5.085938 10.582031 -5.035156 10.53125 -4.984375 C 10.476562 -4.929688 10.425781 -4.875 10.375 -4.8125 L 10.34375 -4.8125 C 10.28125 -4.757812 10.21875 -4.707031 10.15625 -4.65625 C 10.09375 -4.601562 10.023438 -4.546875 9.953125 -4.484375 L 9.84375 -4.484375 C 9.757812 -4.429688 9.671875 -4.378906 9.578125 -4.328125 C 9.484375 -4.273438 9.390625 -4.21875 9.296875 -4.15625 L 9.34375 -4.15625 C 9.320312 -4.144531 9.296875 -4.132812 9.265625 -4.125 C 9.234375 -4.113281 9.203125 -4.097656 9.171875 -4.078125 L 9.15625 -4.078125 C 8.945312 -3.984375 8.71875 -3.898438 8.46875 -3.828125 C 8.351562 -3.796875 8.226562 -3.765625 8.09375 -3.734375 C 7.96875 -3.710938 7.835938 -3.691406 7.703125 -3.671875 L 7.6875 -3.671875 C 7.25 -3.609375 6.785156 -3.578125 6.296875 -3.578125 L 5.140625 -3.578125 L 5.140625 -3.421875 L 5.265625 -3.421875 L 5.265625 -3.09375 L 5.453125 -3.09375 L 5.453125 -3.015625 L 5.0625 -3.015625 L 5.0625 -2.859375 L 5.21875 -2.859375 L 5.21875 -2.609375 L 4.796875 -2.609375 L 4.796875 -2.53125 L 5.3125 -2.53125 L 5.3125 -2.203125 L 5.15625 -2.203125 L 5.15625 -1.78125 L 5.234375 -1.78125 L 5.234375 -1.546875 L 5.03125 -1.546875 L 5.03125 -1.21875 L 4.953125 -1.21875 L 4.953125 -1.046875 L 5.484375 -1.046875 L 5.484375 -0.796875 L 5.03125 -0.796875 L 5.03125 -0.46875 L 5.34375 -0.46875 L 5.34375 -0.4375 C 5.34375 -0.382812 5.335938 -0.34375 5.328125 -0.3125 L 5.234375 -0.3125 C 5.234375 -0.300781 5.222656 -0.273438 5.203125 -0.234375 L 5.25 -0.234375 C 5.238281 -0.210938 5.210938 -0.179688 5.171875 -0.140625 L 5.203125 -0.140625 C 5.148438 -0.0976562 5.113281 -0.0703125 5.09375 -0.0625 L 5.109375 -0.0625 C 5.054688 -0.0195312 4.984375 0 4.890625 0 L 1.515625 0 C 1.410156 0 1.332031 -0.0195312 1.28125 -0.0625 L 1.25 -0.0625 C 1.226562 -0.0703125 1.191406 -0.0976562 1.140625 -0.140625 C 1.128906 -0.171875 1.117188 -0.191406 1.109375 -0.203125 C 1.097656 -0.210938 1.09375 -0.222656 1.09375 -0.234375 L 1.046875 -0.234375 C 1.023438 -0.273438 1.015625 -0.300781 1.015625 -0.3125 L 1.09375 -0.3125 C 1.082031 -0.34375 1.078125 -0.382812 1.078125 -0.4375 L 1.078125 -0.46875 L 0.765625 -0.46875 L 0.765625 -0.796875 L 1.234375 -0.796875 L 1.234375 -1.046875 L 0.6875 -1.046875 L 0.6875 -1.21875 L 0.765625 -1.21875 L 0.765625 -1.546875 L 0.96875 -1.546875 L 0.96875 -1.78125 L 0.90625 -1.78125 L 0.90625 -2.203125 L 1.046875 -2.203125 L 1.046875 -2.53125 L 0.546875 -2.53125 L 0.546875 -2.609375 L 0.953125 -2.609375 L 0.953125 -2.859375 L 0.796875 -2.859375 L 0.796875 -3.015625 L 1.203125 -3.015625 L 1.203125 -3.09375 L 1 -3.09375 L 1 -3.421875 L 0.890625 -3.421875 L 0.890625 -3.671875 L 0.90625 -3.671875 L 0.90625 -4.15625 L 0.875 -4.15625 L 0.875 -4.484375 L 0.96875 -4.484375 L 0.96875 -4.8125 L 1.015625 -4.8125 L 1.015625 -5.140625 L 0.90625 -5.140625 L 0.90625 -5.46875 L 0.75 -5.46875 L 0.75 -5.5625 L 0.71875 -5.5625 L 0.71875 -5.890625 L 0.734375 -5.890625 L 0.734375 -6.125 L 0.90625 -6.125 L 0.90625 -6.625 L 0.859375 -6.625 L 0.859375 -6.703125 L 0.796875 -6.703125 L 0.796875 -7.03125 L 0.984375 -7.03125 L 0.984375 -7.109375 L 0.921875 -7.109375 L 0.921875 -7.359375 L 0.984375 -7.359375 L 0.984375 -7.515625 L 0.96875 -7.515625 L 0.96875 -7.6875 L 0.515625 -7.6875 L 0.515625 -8.015625 L -1.3125 -8.015625 L -1.3125 -8.265625 L -0.46875 -8.265625 L -0.46875 -8.59375 L 1.015625 -8.59375 L 1.015625 -8.75 L 0.390625 -8.75 L 0.390625 -9.078125 L 0.015625 -9.078125 L 0.015625 -9.328125 L 0.265625 -9.328125 L 0.265625 -9.40625 L -0.078125 -9.40625 L -0.078125 -9.734375 L 1.1875 -9.734375 L 1.1875 -9.8125 L 1.015625 -9.8125 L 1.015625 -10.0625 L 0.640625 -10.0625 L 0.640625 -10.3125 L 0.109375 -10.3125 L 0.109375 -10.640625 L 1.296875 -10.640625 L 1.296875 -10.890625 L 0.71875 -10.890625 L 0.71875 -10.96875 L 0.609375 -10.96875 L 0.609375 -11.046875 L 0.90625 -11.046875 C 0.90625 -11.085938 0.914062 -11.144531 0.9375 -11.21875 L 0.75 -11.21875 C 0.757812 -11.25 0.773438 -11.273438 0.796875 -11.296875 C 0.816406 -11.328125 0.84375 -11.351562 0.875 -11.375 L 1.875 -11.375 C 1.957031 -11.4375 2.046875 -11.46875 2.140625 -11.46875 L 7.109375 -11.46875 C 7.585938 -11.46875 8.03125 -11.4375 8.4375 -11.375 L 7.453125 -11.375 C 7.585938 -11.351562 7.71875 -11.328125 7.84375 -11.296875 C 7.96875 -11.273438 8.082031 -11.25 8.1875 -11.21875 L 8.390625 -11.21875 C 8.472656 -11.1875 8.554688 -11.15625 8.640625 -11.125 C 8.722656 -11.101562 8.804688 -11.078125 8.890625 -11.046875 L 8.59375 -11.046875 C 8.625 -11.035156 8.65625 -11.023438 8.6875 -11.015625 C 8.71875 -11.003906 8.75 -10.988281 8.78125 -10.96875 L 8.890625 -10.96875 L 9.0625 -10.890625 L 9.65625 -10.890625 L 10.078125 -10.640625 L 8.890625 -10.640625 C 8.972656 -10.597656 9.046875 -10.546875 9.109375 -10.484375 C 9.179688 -10.421875 9.25 -10.363281 9.3125 -10.3125 L 9.828125 -10.3125 L 10.078125 -10.0625 L 10.453125 -10.0625 C 10.484375 -10.019531 10.519531 -9.976562 10.5625 -9.9375 C 10.601562 -9.90625 10.632812 -9.863281 10.65625 -9.8125 L 10.8125 -9.8125 C 10.84375 -9.78125 10.867188 -9.753906 10.890625 -9.734375 L 9.625 -9.734375 C 9.65625 -9.691406 9.6875 -9.640625 9.71875 -9.578125 C 9.75 -9.515625 9.78125 -9.457031 9.8125 -9.40625 L 10.15625 -9.40625 L 10.1875 -9.328125 L 9.96875 -9.328125 L 10.0625 -9.078125 L 10.453125 -9.078125 L 10.5625 -8.75 L 11.171875 -8.75 L 11.234375 -8.59375 L 9.734375 -8.59375 C 9.753906 -8.539062 9.765625 -8.484375 9.765625 -8.421875 C 9.773438 -8.367188 9.785156 -8.316406 9.796875 -8.265625 L 11.90625 -8.265625 C 11.914062 -8.210938 11.921875 -8.164062 11.921875 -8.125 C 11.921875 -8.09375 11.925781 -8.054688 11.9375 -8.015625 L 11.84375 -8.015625 C 11.851562 -7.960938 11.863281 -7.90625 11.875 -7.84375 C 11.882812 -7.789062 11.890625 -7.738281 11.890625 -7.6875 L 11.25 -7.6875 Z M 7.125 -7.109375 L 6.75 -7.109375 L 6.796875 -7.359375 L 6.984375 -7.359375 L 6.984375 -7.515625 C 6.984375 -7.546875 6.984375 -7.578125 6.984375 -7.609375 C 6.984375 -7.640625 6.976562 -7.664062 6.96875 -7.6875 L 7.609375 -7.6875 C 7.597656 -7.738281 7.585938 -7.796875 7.578125 -7.859375 C 7.566406 -7.921875 7.546875 -7.972656 7.515625 -8.015625 L 7.59375 -8.015625 C 7.570312 -8.097656 7.515625 -8.179688 7.421875 -8.265625 L 5.328125 -8.265625 C 5.191406 -8.367188 5.035156 -8.421875 4.859375 -8.421875 L 3.703125 -8.421875 L 3.703125 -8.265625 L 2.875 -8.265625 L 2.875 -8.015625 L 4.6875 -8.015625 L 4.6875 -7.6875 L 5.140625 -7.6875 L 5.140625 -7.515625 L 5.15625 -7.515625 L 5.15625 -7.359375 L 5.09375 -7.359375 L 5.09375 -7.109375 L 5.15625 -7.109375 L 5.15625 -7.03125 L 4.984375 -7.03125 L 4.984375 -6.703125 L 5.03125 -6.703125 L 5.03125 -6.625 L 5.078125 -6.625 L 5.078125 -6.609375 L 6.234375 -6.609375 C 6.296875 -6.609375 6.34375 -6.613281 6.375 -6.625 L 6.609375 -6.625 C 6.648438 -6.632812 6.6875 -6.644531 6.71875 -6.65625 C 6.75 -6.675781 6.78125 -6.691406 6.8125 -6.703125 L 6.65625 -6.703125 C 6.78125 -6.773438 6.878906 -6.882812 6.953125 -7.03125 L 7.09375 -7.03125 C 7.113281 -7.070312 7.125 -7.097656 7.125 -7.109375 Z M 7.125 -7.109375 "/></g></g></g><g fill="#000000" fill-opacity="1"><g transform="translate(17.226884, 20.695832)"><g><path d="M 11.34375 -6.296875 L 12.15625 -6.296875 L 12.15625 -5.96875 L 12.015625 -5.96875 L 12.015625 -5.640625 L 11.859375 -5.640625 L 11.859375 -5.390625 L 11.515625 -5.390625 L 11.515625 -5.3125 L 11.65625 -5.3125 L 11.65625 -5.234375 L 11.1875 -5.234375 L 11.1875 -5.0625 L 11.984375 -5.0625 L 11.984375 -4.8125 L 11.5 -4.8125 L 11.5 -4.734375 L 11.515625 -4.734375 C 11.515625 -4.679688 11.507812 -4.625 11.5 -4.5625 C 11.5 -4.507812 11.5 -4.457031 11.5 -4.40625 L 11.484375 -4.40625 C 11.472656 -4.375 11.46875 -4.328125 11.46875 -4.265625 L 11.46875 -4.078125 L 11.390625 -4.078125 C 11.378906 -4.054688 11.375 -4.03125 11.375 -4 C 11.375 -3.96875 11.375 -3.941406 11.375 -3.921875 L 11.53125 -3.921875 L 11.484375 -3.59375 L 11.34375 -3.59375 C 11.332031 -3.53125 11.320312 -3.472656 11.3125 -3.421875 C 11.3125 -3.367188 11.300781 -3.316406 11.28125 -3.265625 L 11.453125 -3.265625 C 11.453125 -3.253906 11.445312 -3.242188 11.4375 -3.234375 C 11.4375 -3.222656 11.4375 -3.207031 11.4375 -3.1875 L 11.6875 -3.1875 C 11.6875 -3.164062 11.679688 -3.148438 11.671875 -3.140625 C 11.671875 -3.128906 11.671875 -3.113281 11.671875 -3.09375 L 11.375 -3.09375 C 11.363281 -3.050781 11.351562 -3.007812 11.34375 -2.96875 C 11.332031 -2.9375 11.320312 -2.898438 11.3125 -2.859375 L 11.265625 -2.859375 L 11.15625 -2.609375 L 10.984375 -2.609375 C 10.972656 -2.566406 10.957031 -2.523438 10.9375 -2.484375 C 10.914062 -2.441406 10.890625 -2.398438 10.859375 -2.359375 L 11.015625 -2.359375 C 10.992188 -2.304688 10.96875 -2.253906 10.9375 -2.203125 L 10.828125 -2.203125 C 10.816406 -2.148438 10.796875 -2.101562 10.765625 -2.0625 C 10.742188 -2.03125 10.722656 -1.992188 10.703125 -1.953125 L 11.21875 -1.953125 L 11.09375 -1.78125 L 10.484375 -1.78125 L 10.3125 -1.546875 L 10.484375 -1.546875 L 10.265625 -1.296875 L 10.4375 -1.296875 C 10.425781 -1.285156 10.410156 -1.273438 10.390625 -1.265625 C 10.378906 -1.253906 10.367188 -1.238281 10.359375 -1.21875 L 10.5625 -1.21875 C 10.519531 -1.195312 10.484375 -1.164062 10.453125 -1.125 C 10.429688 -1.09375 10.40625 -1.066406 10.375 -1.046875 L 10.0625 -1.046875 C 10.03125 -1.023438 10 -1 9.96875 -0.96875 C 9.9375 -0.9375 9.894531 -0.910156 9.84375 -0.890625 L 9.96875 -0.890625 C 9.9375 -0.867188 9.898438 -0.835938 9.859375 -0.796875 C 9.816406 -0.765625 9.773438 -0.738281 9.734375 -0.71875 L 9.703125 -0.71875 C 9.609375 -0.664062 9.507812 -0.609375 9.40625 -0.546875 C 9.3125 -0.492188 9.207031 -0.441406 9.09375 -0.390625 L 9.046875 -0.390625 C 9.015625 -0.378906 8.984375 -0.367188 8.953125 -0.359375 C 8.921875 -0.347656 8.882812 -0.332031 8.84375 -0.3125 C 8.769531 -0.28125 8.695312 -0.25 8.625 -0.21875 C 8.550781 -0.195312 8.472656 -0.171875 8.390625 -0.140625 L 8.375 -0.140625 C 8.007812 -0.0351562 7.617188 0.0390625 7.203125 0.09375 L 7.21875 0.09375 C 7.039062 0.113281 6.851562 0.128906 6.65625 0.140625 C 6.46875 0.148438 6.28125 0.15625 6.09375 0.15625 C 5.894531 0.15625 5.703125 0.148438 5.515625 0.140625 C 5.335938 0.128906 5.15625 0.113281 4.96875 0.09375 C 4.550781 0.0507812 4.148438 -0.0234375 3.765625 -0.140625 L 3.78125 -0.140625 C 3.707031 -0.171875 3.628906 -0.195312 3.546875 -0.21875 C 3.472656 -0.25 3.398438 -0.28125 3.328125 -0.3125 L 3.3125 -0.3125 C 3.28125 -0.332031 3.242188 -0.347656 3.203125 -0.359375 C 3.171875 -0.367188 3.140625 -0.378906 3.109375 -0.390625 L 3.15625 -0.390625 C 3.050781 -0.441406 2.945312 -0.492188 2.84375 -0.546875 C 2.75 -0.609375 2.65625 -0.664062 2.5625 -0.71875 L 2.59375 -0.71875 L 2.34375 -0.890625 L 2.25 -0.890625 C 2.207031 -0.910156 2.164062 -0.9375 2.125 -0.96875 C 2.09375 -1 2.0625 -1.023438 2.03125 -1.046875 L 2.34375 -1.046875 L 2.140625 -1.21875 L 1.953125 -1.21875 C 1.941406 -1.238281 1.929688 -1.253906 1.921875 -1.265625 C 1.910156 -1.273438 1.894531 -1.285156 1.875 -1.296875 L 1.703125 -1.296875 C 1.660156 -1.335938 1.617188 -1.375 1.578125 -1.40625 C 1.546875 -1.445312 1.507812 -1.492188 1.46875 -1.546875 L 1.296875 -1.546875 L 1.09375 -1.78125 L 1.703125 -1.78125 L 1.609375 -1.953125 L 1.078125 -1.953125 C 1.054688 -1.992188 1.035156 -2.03125 1.015625 -2.0625 C 0.992188 -2.101562 0.972656 -2.148438 0.953125 -2.203125 L 1.046875 -2.203125 C 1.015625 -2.253906 0.988281 -2.304688 0.96875 -2.359375 L 0.8125 -2.359375 C 0.789062 -2.398438 0.769531 -2.441406 0.75 -2.484375 C 0.738281 -2.523438 0.722656 -2.566406 0.703125 -2.609375 L 0.90625 -2.609375 L 0.796875 -2.859375 L 0.859375 -2.859375 C 0.835938 -2.898438 0.820312 -2.9375 0.8125 -2.96875 C 0.800781 -3.007812 0.789062 -3.050781 0.78125 -3.09375 L 0.96875 -3.09375 C 0.957031 -3.113281 0.953125 -3.144531 0.953125 -3.1875 L 0.78125 -3.1875 C 0.78125 -3.207031 0.773438 -3.222656 0.765625 -3.234375 C 0.765625 -3.242188 0.765625 -3.253906 0.765625 -3.265625 L 0.734375 -3.265625 C 0.722656 -3.316406 0.710938 -3.367188 0.703125 -3.421875 C 0.691406 -3.472656 0.679688 -3.53125 0.671875 -3.59375 L 0.75 -3.59375 C 0.738281 -3.644531 0.726562 -3.695312 0.71875 -3.75 C 0.71875 -3.800781 0.71875 -3.859375 0.71875 -3.921875 L 0.625 -3.921875 L 0.609375 -4.078125 L 0.71875 -4.078125 L 0.71875 -4.265625 C 0.71875 -4.285156 0.710938 -4.304688 0.703125 -4.328125 C 0.703125 -4.359375 0.703125 -4.382812 0.703125 -4.40625 L 0.484375 -4.40625 C 0.472656 -4.457031 0.46875 -4.507812 0.46875 -4.5625 C 0.46875 -4.625 0.46875 -4.679688 0.46875 -4.734375 L 0.59375 -4.734375 L 0.59375 -4.8125 L 0.546875 -4.8125 L 0.546875 -5.0625 L 0.875 -5.0625 L 0.875 -5.234375 L 0.296875 -5.234375 L 0.296875 -5.3125 L 0.609375 -5.3125 L 0.609375 -5.390625 L 0.59375 -5.390625 L 0.59375 -5.640625 L 0.515625 -5.640625 L 0.515625 -5.96875 L 0.609375 -5.96875 L 0.609375 -6.296875 L 0.484375 -6.296875 L 0.484375 -6.546875 L -0.109375 -6.546875 L -0.109375 -6.875 L 0.59375 -6.875 C 0.601562 -6.894531 0.609375 -6.921875 0.609375 -6.953125 L 0.875 -6.953125 L 0.875 -7.03125 L 0.671875 -7.03125 L 0.671875 -7.203125 L 0.6875 -7.203125 L 0.71875 -7.515625 L 0.6875 -7.515625 C 0.6875 -7.566406 0.6875 -7.609375 0.6875 -7.640625 C 0.695312 -7.679688 0.707031 -7.722656 0.71875 -7.765625 L 0.671875 -7.765625 C 0.671875 -7.804688 0.671875 -7.847656 0.671875 -7.890625 C 0.679688 -7.929688 0.691406 -7.972656 0.703125 -8.015625 L 0.671875 -8.015625 C 0.679688 -8.054688 0.691406 -8.09375 0.703125 -8.125 C 0.710938 -8.164062 0.722656 -8.210938 0.734375 -8.265625 L 0.28125 -8.265625 C 0.28125 -8.285156 0.28125 -8.300781 0.28125 -8.3125 C 0.289062 -8.320312 0.296875 -8.332031 0.296875 -8.34375 L 0.78125 -8.34375 L 0.828125 -8.5 L 0.796875 -8.5 L 0.828125 -8.59375 L 1.078125 -8.59375 C 1.085938 -8.613281 1.097656 -8.640625 1.109375 -8.671875 C 1.117188 -8.703125 1.128906 -8.726562 1.140625 -8.75 L 0.984375 -8.75 C 1.015625 -8.851562 1.054688 -8.960938 1.109375 -9.078125 L 1.0625 -9.078125 C 1.09375 -9.128906 1.125 -9.1875 1.15625 -9.25 C 1.1875 -9.3125 1.21875 -9.363281 1.25 -9.40625 L 1.296875 -9.40625 L 1.34375 -9.484375 L 1.078125 -9.484375 L 1.125 -9.578125 L 1.390625 -9.578125 L 1.4375 -9.65625 L 1.40625 -9.65625 L 1.609375 -9.90625 L 1.484375 -9.90625 L 1.703125 -10.140625 C 1.753906 -10.203125 1.8125 -10.257812 1.875 -10.3125 C 1.9375 -10.375 2 -10.425781 2.0625 -10.46875 L 1.90625 -10.46875 L 2 -10.5625 L 1.8125 -10.5625 C 1.84375 -10.582031 1.863281 -10.597656 1.875 -10.609375 C 1.894531 -10.617188 1.914062 -10.628906 1.9375 -10.640625 L 2.34375 -10.640625 C 2.382812 -10.660156 2.425781 -10.6875 2.46875 -10.71875 C 2.519531 -10.75 2.566406 -10.773438 2.609375 -10.796875 L 2.65625 -10.796875 C 2.757812 -10.859375 2.863281 -10.914062 2.96875 -10.96875 C 3.082031 -11.03125 3.195312 -11.082031 3.3125 -11.125 L 3.359375 -11.125 C 3.578125 -11.226562 3.816406 -11.3125 4.078125 -11.375 L 4.15625 -11.375 C 4.476562 -11.457031 4.8125 -11.519531 5.15625 -11.5625 C 5.507812 -11.613281 5.875 -11.640625 6.25 -11.640625 C 7.019531 -11.640625 7.707031 -11.550781 8.3125 -11.375 L 8.21875 -11.375 C 8.332031 -11.34375 8.445312 -11.304688 8.5625 -11.265625 C 8.6875 -11.234375 8.804688 -11.1875 8.921875 -11.125 L 8.84375 -11.125 C 8.96875 -11.082031 9.082031 -11.03125 9.1875 -10.96875 C 9.289062 -10.914062 9.394531 -10.859375 9.5 -10.796875 L 9.4375 -10.796875 L 9.6875 -10.640625 L 9.28125 -10.640625 C 9.300781 -10.628906 9.316406 -10.617188 9.328125 -10.609375 C 9.347656 -10.597656 9.367188 -10.582031 9.390625 -10.5625 L 9.578125 -10.5625 C 9.597656 -10.550781 9.617188 -10.535156 9.640625 -10.515625 C 9.660156 -10.503906 9.675781 -10.488281 9.6875 -10.46875 L 9.84375 -10.46875 C 9.914062 -10.425781 9.976562 -10.375 10.03125 -10.3125 C 10.09375 -10.257812 10.15625 -10.203125 10.21875 -10.140625 L 10.234375 -10.140625 C 10.273438 -10.097656 10.3125 -10.054688 10.34375 -10.015625 C 10.375 -9.984375 10.40625 -9.945312 10.4375 -9.90625 L 10.5625 -9.90625 L 10.75 -9.65625 L 10.78125 -9.65625 C 10.8125 -9.625 10.832031 -9.597656 10.84375 -9.578125 L 10.59375 -9.578125 L 10.640625 -9.484375 L 10.921875 -9.484375 L 10.96875 -9.40625 L 10.921875 -9.40625 C 10.953125 -9.363281 10.976562 -9.3125 11 -9.25 C 11.03125 -9.1875 11.0625 -9.128906 11.09375 -9.078125 L 11.140625 -9.078125 L 11.296875 -8.75 L 11.453125 -8.75 L 11.5 -8.59375 L 11.265625 -8.59375 L 11.296875 -8.5 L 11.328125 -8.5 L 11.375 -8.34375 L 11.328125 -8.34375 C 11.328125 -8.332031 11.328125 -8.320312 11.328125 -8.3125 C 11.335938 -8.300781 11.34375 -8.285156 11.34375 -8.265625 L 10.65625 -8.265625 C 10.675781 -8.210938 10.6875 -8.164062 10.6875 -8.125 C 10.695312 -8.09375 10.707031 -8.054688 10.71875 -8.015625 L 11.578125 -8.015625 C 11.585938 -7.972656 11.59375 -7.929688 11.59375 -7.890625 C 11.601562 -7.847656 11.609375 -7.804688 11.609375 -7.765625 L 11.375 -7.765625 C 11.382812 -7.722656 11.390625 -7.679688 11.390625 -7.640625 C 11.398438 -7.609375 11.40625 -7.566406 11.40625 -7.515625 L 11.625 -7.515625 L 11.65625 -7.203125 L 11.4375 -7.203125 L 11.4375 -7.140625 C 11.4375 -7.128906 11.4375 -7.113281 11.4375 -7.09375 C 11.445312 -7.070312 11.453125 -7.050781 11.453125 -7.03125 L 11.90625 -7.03125 L 11.90625 -6.953125 L 11.5 -6.953125 C 11.507812 -6.929688 11.515625 -6.90625 11.515625 -6.875 L 11.8125 -6.875 C 11.820312 -6.8125 11.828125 -6.753906 11.828125 -6.703125 C 11.828125 -6.648438 11.828125 -6.597656 11.828125 -6.546875 L 11.34375 -6.546875 Z M 7.75 -5.96875 L 7.90625 -5.96875 L 7.90625 -6.296875 L 7.078125 -6.296875 L 7.078125 -6.546875 L 7.578125 -6.546875 C 7.578125 -6.597656 7.578125 -6.648438 7.578125 -6.703125 C 7.578125 -6.753906 7.570312 -6.8125 7.5625 -6.875 L 7.265625 -6.875 C 7.265625 -6.894531 7.257812 -6.910156 7.25 -6.921875 C 7.25 -6.929688 7.25 -6.941406 7.25 -6.953125 L 7.640625 -6.953125 L 7.640625 -7.03125 L 7.203125 -7.03125 C 7.203125 -7.050781 7.195312 -7.066406 7.1875 -7.078125 C 7.175781 -7.085938 7.171875 -7.097656 7.171875 -7.109375 L 7.171875 -7.203125 L 7.375 -7.203125 C 7.375 -7.253906 7.367188 -7.304688 7.359375 -7.359375 C 7.359375 -7.421875 7.351562 -7.472656 7.34375 -7.515625 L 7.125 -7.515625 C 7.113281 -7.566406 7.101562 -7.609375 7.09375 -7.640625 C 7.082031 -7.679688 7.066406 -7.722656 7.046875 -7.765625 L 7.28125 -7.765625 C 7.25 -7.859375 7.203125 -7.941406 7.140625 -8.015625 L 6.296875 -8.015625 C 6.242188 -8.097656 6.15625 -8.179688 6.03125 -8.265625 L 6.71875 -8.265625 C 6.65625 -8.304688 6.609375 -8.332031 6.578125 -8.34375 L 6.625 -8.34375 C 6.457031 -8.40625 6.273438 -8.4375 6.078125 -8.4375 C 5.878906 -8.4375 5.703125 -8.40625 5.546875 -8.34375 L 5.0625 -8.34375 C 5.019531 -8.332031 4.96875 -8.304688 4.90625 -8.265625 L 5.359375 -8.265625 C 5.273438 -8.203125 5.1875 -8.117188 5.09375 -8.015625 L 5.125 -8.015625 C 5.070312 -7.941406 5.03125 -7.859375 5 -7.765625 L 5.046875 -7.765625 C 5.035156 -7.722656 5.023438 -7.679688 5.015625 -7.640625 C 5.003906 -7.609375 4.988281 -7.566406 4.96875 -7.515625 L 5 -7.515625 C 4.988281 -7.472656 4.976562 -7.421875 4.96875 -7.359375 C 4.96875 -7.304688 4.96875 -7.253906 4.96875 -7.203125 L 4.9375 -7.203125 L 4.9375 -7.03125 L 5.125 -7.03125 L 5.125 -6.953125 L 4.875 -6.953125 L 4.875 -6.875 L 4.140625 -6.875 L 4.140625 -6.546875 L 4.75 -6.546875 L 4.75 -6.296875 L 4.875 -6.296875 L 4.875 -5.96875 L 4.765625 -5.96875 L 4.765625 -5.640625 L 4.859375 -5.640625 L 4.859375 -5.390625 L 4.875 -5.390625 C 4.875 -5.359375 4.878906 -5.332031 4.890625 -5.3125 L 4.5625 -5.3125 L 4.5625 -5.234375 L 5.125 -5.234375 L 5.125 -5.0625 L 4.796875 -5.0625 L 4.796875 -4.8125 L 4.859375 -4.8125 L 4.859375 -4.734375 L 4.734375 -4.734375 C 4.734375 -4.679688 4.734375 -4.625 4.734375 -4.5625 C 4.742188 -4.507812 4.75 -4.457031 4.75 -4.40625 L 4.984375 -4.40625 L 4.984375 -4.359375 C 4.984375 -4.316406 4.984375 -4.269531 4.984375 -4.21875 C 4.984375 -4.164062 4.988281 -4.117188 5 -4.078125 L 4.890625 -4.078125 C 4.898438 -4.054688 4.90625 -4.03125 4.90625 -4 C 4.90625 -3.96875 4.910156 -3.941406 4.921875 -3.921875 L 5.015625 -3.921875 C 5.023438 -3.859375 5.039062 -3.800781 5.0625 -3.75 C 5.082031 -3.695312 5.101562 -3.644531 5.125 -3.59375 L 5.046875 -3.59375 C 5.109375 -3.46875 5.195312 -3.359375 5.3125 -3.265625 L 5.34375 -3.265625 C 5.363281 -3.253906 5.382812 -3.238281 5.40625 -3.21875 C 5.425781 -3.207031 5.445312 -3.195312 5.46875 -3.1875 L 5.625 -3.1875 C 5.65625 -3.164062 5.6875 -3.144531 5.71875 -3.125 C 5.75 -3.113281 5.78125 -3.101562 5.8125 -3.09375 L 5.625 -3.09375 C 5.75 -3.050781 5.898438 -3.03125 6.078125 -3.03125 C 6.253906 -3.03125 6.410156 -3.050781 6.546875 -3.09375 L 6.8125 -3.09375 C 6.851562 -3.101562 6.890625 -3.113281 6.921875 -3.125 C 6.953125 -3.144531 6.984375 -3.164062 7.015625 -3.1875 L 6.75 -3.1875 C 6.769531 -3.195312 6.789062 -3.207031 6.8125 -3.21875 C 6.832031 -3.238281 6.859375 -3.253906 6.890625 -3.265625 L 6.703125 -3.265625 C 6.796875 -3.335938 6.882812 -3.445312 6.96875 -3.59375 L 7.109375 -3.59375 C 7.171875 -3.707031 7.21875 -3.816406 7.25 -3.921875 L 7.078125 -3.921875 C 7.085938 -3.941406 7.09375 -3.96875 7.09375 -4 C 7.09375 -4.03125 7.097656 -4.054688 7.109375 -4.078125 L 7.203125 -4.078125 C 7.210938 -4.117188 7.21875 -4.164062 7.21875 -4.21875 C 7.21875 -4.269531 7.21875 -4.316406 7.21875 -4.359375 L 7.21875 -4.40625 L 7.25 -4.40625 C 7.25 -4.457031 7.25 -4.507812 7.25 -4.5625 C 7.25 -4.625 7.253906 -4.679688 7.265625 -4.734375 L 7.25 -4.734375 L 7.25 -4.8125 L 7.71875 -4.8125 L 7.71875 -5.0625 L 6.9375 -5.0625 L 6.9375 -5.234375 L 7.390625 -5.234375 L 7.390625 -5.3125 L 7.265625 -5.3125 L 7.265625 -5.390625 L 7.609375 -5.390625 L 7.609375 -5.640625 L 7.75 -5.640625 Z M 7.75 -5.96875 "/></g></g></g><g fill="#000000" fill-opacity="1"><g transform="translate(29.38449, 20.695832)"><g><path d="M 11.34375 -6.546875 L 10.546875 -6.546875 C 10.523438 -6.492188 10.507812 -6.445312 10.5 -6.40625 C 10.488281 -6.375 10.472656 -6.335938 10.453125 -6.296875 L 10.921875 -6.296875 L 10.859375 -6.125 L 10.46875 -6.125 C 10.4375 -6.03125 10.394531 -5.921875 10.34375 -5.796875 L 10.09375 -5.796875 C 10.050781 -5.691406 9.992188 -5.582031 9.921875 -5.46875 L 9.953125 -5.46875 C 9.910156 -5.414062 9.867188 -5.363281 9.828125 -5.3125 C 9.796875 -5.257812 9.757812 -5.203125 9.71875 -5.140625 L 11.484375 -5.140625 L 11.28125 -4.90625 L 9.8125 -4.90625 C 9.769531 -4.84375 9.71875 -4.785156 9.65625 -4.734375 C 9.59375 -4.679688 9.53125 -4.628906 9.46875 -4.578125 L 9.6875 -4.578125 C 9.644531 -4.523438 9.59375 -4.476562 9.53125 -4.4375 C 9.46875 -4.40625 9.410156 -4.367188 9.359375 -4.328125 L 9.90625 -4.328125 L 9.828125 -4.28125 L 9.984375 -4 L 9.59375 -4 L 9.765625 -3.671875 L 9.8125 -3.671875 L 9.859375 -3.59375 L 9.84375 -3.59375 L 10.015625 -3.265625 L 10.171875 -3.265625 L 10.28125 -3.09375 L 9.015625 -3.09375 L 9.140625 -2.859375 L 10.296875 -2.859375 L 10.390625 -2.6875 L 10.03125 -2.6875 L 10.15625 -2.4375 L 11.78125 -2.4375 L 11.96875 -2.109375 L 10.890625 -2.109375 L 11.015625 -1.875 L 10.5 -1.875 L 10.765625 -1.375 L 10.890625 -1.375 L 10.984375 -1.21875 L 10.9375 -1.21875 L 10.984375 -1.125 L 10.21875 -1.125 L 10.390625 -0.796875 L 10.421875 -0.71875 L 9.921875 -0.71875 L 10 -0.546875 C 10.03125 -0.492188 10.046875 -0.441406 10.046875 -0.390625 L 10.390625 -0.390625 L 10.390625 -0.359375 C 10.390625 -0.242188 10.34375 -0.144531 10.25 -0.0625 L 10.6875 -0.0625 C 10.632812 -0.0195312 10.5625 0 10.46875 0 L 7.109375 0 C 7.046875 0 6.988281 -0.00390625 6.9375 -0.015625 C 6.894531 -0.0351562 6.84375 -0.0507812 6.78125 -0.0625 L 6.34375 -0.0625 C 6.257812 -0.101562 6.1875 -0.15625 6.125 -0.21875 C 6.0625 -0.289062 6.015625 -0.347656 5.984375 -0.390625 L 5.65625 -0.390625 L 5.625 -0.4375 L 5.5 -0.71875 L 6.03125 -0.71875 L 5.984375 -0.796875 L 4.421875 -0.796875 L 4.421875 -0.71875 L 3.59375 -0.71875 L 3.59375 -0.390625 L 4.921875 -0.390625 C 4.898438 -0.234375 4.828125 -0.125 4.703125 -0.0625 L 4.59375 -0.0625 C 4.507812 -0.0195312 4.425781 0 4.34375 0 L 1.125 0 C 1.03125 0 0.957031 -0.0195312 0.90625 -0.0625 L 1.03125 -0.0625 C 0.914062 -0.125 0.84375 -0.234375 0.8125 -0.390625 L -0.484375 -0.390625 C -0.484375 -0.398438 -0.488281 -0.40625 -0.5 -0.40625 C -0.507812 -0.414062 -0.515625 -0.425781 -0.515625 -0.4375 L -0.515625 -0.71875 L 0.328125 -0.71875 L 0.328125 -0.796875 L 1.96875 -0.796875 L 1.96875 -1.125 L 0.21875 -1.125 L 0.21875 -1.21875 L 1.25 -1.21875 L 1.25 -1.375 L 0.90625 -1.375 L 0.90625 -1.625 L 1.46875 -1.625 L 1.46875 -1.875 L 0.546875 -1.875 L 0.546875 -2.109375 L 1.796875 -2.109375 L 1.796875 -2.4375 L 1.078125 -2.4375 L 1.078125 -2.6875 L 1.0625 -2.6875 L 1.0625 -2.765625 L 0.96875 -2.765625 L 0.96875 -2.859375 L 0.53125 -2.859375 L 0.53125 -3.09375 L 1.078125 -3.09375 L 1.078125 -3.265625 L 0.9375 -3.265625 L 0.9375 -3.59375 L 0.953125 -3.59375 L 0.953125 -3.671875 L 0.90625 -3.671875 L 0.90625 -4 L 1.296875 -4 L 1.296875 -4.328125 L 0.734375 -4.328125 L 0.734375 -4.578125 L 0.53125 -4.578125 L 0.53125 -4.90625 L 1.96875 -4.90625 L 1.96875 -5.140625 L 0.203125 -5.140625 L 0.203125 -5.46875 L 0.15625 -5.46875 L 0.15625 -5.796875 L 0.40625 -5.796875 L 0.40625 -6.125 L 0.78125 -6.125 L 0.78125 -6.296875 L 0.328125 -6.296875 L 0.328125 -6.546875 L 1.125 -6.546875 L 1.125 -6.703125 L 2.3125 -6.703125 L 2.3125 -6.875 L 0.6875 -6.875 L 0.6875 -6.953125 L 0.765625 -6.953125 L 0.765625 -7.03125 L 0.921875 -7.03125 L 0.921875 -7.109375 L 0.9375 -7.109375 L 0.9375 -7.28125 L 0.90625 -7.28125 L 0.90625 -7.515625 L 0.96875 -7.515625 L 0.96875 -7.84375 L 0.890625 -7.84375 L 0.890625 -8.015625 L 0.96875 -8.015625 L 0.96875 -8.265625 L 0.90625 -8.265625 L 0.90625 -8.34375 L 0.953125 -8.34375 L 0.953125 -8.5 L 0.9375 -8.5 L 0.9375 -8.59375 L 0.875 -8.59375 L 0.875 -8.671875 L 1.015625 -8.671875 L 1.015625 -8.921875 L 1.140625 -8.921875 L 1.140625 -9.15625 L 0.375 -9.15625 L 0.375 -9.484375 L 0.5625 -9.484375 L 0.5625 -9.8125 L 0.453125 -9.8125 L 0.453125 -10.0625 L 0.90625 -10.0625 L 0.90625 -10.3125 L 1.0625 -10.3125 L 1.0625 -10.5625 L 0.765625 -10.5625 L 0.765625 -10.71875 L 0.890625 -10.71875 L 0.890625 -10.796875 L 0.921875 -10.796875 L 0.921875 -11.046875 L 0.953125 -11.046875 C 0.953125 -11.171875 1 -11.28125 1.09375 -11.375 L 1.984375 -11.375 C 2.046875 -11.4375 2.140625 -11.46875 2.265625 -11.46875 L 7.109375 -11.46875 C 7.578125 -11.46875 8.015625 -11.4375 8.421875 -11.375 L 7.5625 -11.375 C 8 -11.3125 8.410156 -11.203125 8.796875 -11.046875 L 8.765625 -11.046875 C 8.953125 -10.984375 9.132812 -10.898438 9.3125 -10.796875 L 9.28125 -10.796875 L 9.421875 -10.71875 L 9.296875 -10.71875 C 9.347656 -10.695312 9.390625 -10.671875 9.421875 -10.640625 C 9.460938 -10.609375 9.507812 -10.582031 9.5625 -10.5625 L 9.84375 -10.5625 C 9.90625 -10.507812 9.960938 -10.460938 10.015625 -10.421875 C 10.066406 -10.390625 10.113281 -10.351562 10.15625 -10.3125 L 10 -10.3125 C 10.050781 -10.269531 10.09375 -10.226562 10.125 -10.1875 C 10.164062 -10.144531 10.210938 -10.101562 10.265625 -10.0625 L 9.8125 -10.0625 C 9.863281 -10.019531 9.90625 -9.976562 9.9375 -9.9375 C 9.96875 -9.90625 10 -9.863281 10.03125 -9.8125 L 10.109375 -9.8125 C 10.203125 -9.707031 10.28125 -9.597656 10.34375 -9.484375 L 10.171875 -9.484375 C 10.210938 -9.441406 10.242188 -9.390625 10.265625 -9.328125 C 10.296875 -9.273438 10.328125 -9.21875 10.359375 -9.15625 L 11.125 -9.15625 L 11.234375 -8.921875 L 11.09375 -8.921875 C 11.101562 -8.867188 11.113281 -8.820312 11.125 -8.78125 C 11.144531 -8.75 11.160156 -8.710938 11.171875 -8.671875 L 11.015625 -8.671875 L 11.046875 -8.59375 L 11.109375 -8.59375 C 11.117188 -8.570312 11.125 -8.539062 11.125 -8.5 L 11.171875 -8.34375 L 11.234375 -8.34375 C 11.234375 -8.3125 11.238281 -8.285156 11.25 -8.265625 L 11.265625 -8.265625 C 11.273438 -8.210938 11.28125 -8.164062 11.28125 -8.125 C 11.289062 -8.09375 11.296875 -8.054688 11.296875 -8.015625 L 11.078125 -8.015625 C 11.078125 -7.992188 11.078125 -7.96875 11.078125 -7.9375 C 11.078125 -7.90625 11.082031 -7.875 11.09375 -7.84375 L 11.1875 -7.84375 C 11.1875 -7.789062 11.191406 -7.738281 11.203125 -7.6875 C 11.210938 -7.632812 11.21875 -7.578125 11.21875 -7.515625 L 11.21875 -7.359375 L 11.3125 -7.359375 L 11.3125 -7.28125 L 11.21875 -7.28125 L 11.21875 -7.109375 L 11.046875 -7.109375 C 11.046875 -7.097656 11.039062 -7.085938 11.03125 -7.078125 C 11.03125 -7.066406 11.03125 -7.050781 11.03125 -7.03125 L 11.1875 -7.03125 C 11.1875 -7.019531 11.179688 -7.007812 11.171875 -7 C 11.171875 -6.988281 11.171875 -6.972656 11.171875 -6.953125 L 11.953125 -6.953125 C 11.941406 -6.929688 11.9375 -6.90625 11.9375 -6.875 L 12.140625 -6.875 L 12.125 -6.703125 L 11.375 -6.703125 C 11.351562 -6.640625 11.34375 -6.585938 11.34375 -6.546875 Z M 4.78125 -6.875 L 6.40625 -6.875 L 6.40625 -6.703125 L 5.234375 -6.703125 L 5.234375 -6.6875 L 6.421875 -6.6875 C 6.503906 -6.6875 6.566406 -6.691406 6.609375 -6.703125 L 7.359375 -6.703125 C 7.484375 -6.734375 7.59375 -6.789062 7.6875 -6.875 L 7.453125 -6.875 L 7.546875 -6.953125 L 6.765625 -6.953125 C 6.796875 -6.984375 6.816406 -7.007812 6.828125 -7.03125 L 6.671875 -7.03125 L 6.71875 -7.109375 L 6.890625 -7.109375 L 6.9375 -7.28125 L 7.015625 -7.28125 C 7.023438 -7.300781 7.03125 -7.328125 7.03125 -7.359375 L 6.9375 -7.359375 L 6.953125 -7.515625 C 6.953125 -7.628906 6.9375 -7.738281 6.90625 -7.84375 L 6.796875 -7.84375 C 6.785156 -7.875 6.773438 -7.90625 6.765625 -7.9375 C 6.765625 -7.96875 6.753906 -7.992188 6.734375 -8.015625 L 6.96875 -8.015625 C 6.925781 -8.097656 6.863281 -8.179688 6.78125 -8.265625 L 6.75 -8.265625 C 6.71875 -8.296875 6.679688 -8.320312 6.640625 -8.34375 L 6.59375 -8.34375 C 6.476562 -8.394531 6.363281 -8.421875 6.25 -8.421875 L 5.046875 -8.421875 L 5.046875 -8.34375 L 5 -8.34375 L 5 -8.265625 L 5.0625 -8.265625 L 5.0625 -8.015625 L 4.984375 -8.015625 L 4.984375 -7.84375 L 5.0625 -7.84375 L 5.0625 -7.515625 L 5 -7.515625 L 5 -7.28125 L 5.03125 -7.28125 L 5.03125 -7.109375 L 5.015625 -7.109375 L 5.015625 -7.03125 L 4.875 -7.03125 L 4.875 -6.953125 L 4.78125 -6.953125 Z M 6.078125 -3.09375 L 6.015625 -3.265625 L 5.828125 -3.265625 L 5.703125 -3.578125 L 5.03125 -3.578125 L 5.03125 -3.265625 L 5.171875 -3.265625 L 5.171875 -3.09375 Z M 4.625 -3.09375 L 4.625 -2.859375 L 4.9375 -2.859375 L 4.828125 -3.09375 Z M 6.109375 -2.765625 L 6.078125 -2.859375 L 5.0625 -2.859375 L 5.0625 -2.765625 L 5.15625 -2.765625 L 5.15625 -2.6875 L 5.171875 -2.6875 L 5.171875 -2.4375 L 5.90625 -2.4375 L 5.90625 -2.109375 L 4.640625 -2.109375 L 4.640625 -1.875 L 5.578125 -1.875 L 5.578125 -1.625 L 5 -1.625 L 5 -1.375 L 5.34375 -1.375 L 5.34375 -1.21875 L 4.3125 -1.21875 L 4.3125 -1.125 L 6.625 -1.125 L 6.578125 -1.21875 L 6.625 -1.21875 L 6.546875 -1.375 L 6.40625 -1.375 L 6.3125 -1.625 L 6.203125 -1.875 L 6.71875 -1.875 L 6.609375 -2.109375 L 7.671875 -2.109375 L 7.515625 -2.4375 L 5.90625 -2.4375 L 5.796875 -2.6875 L 6.15625 -2.6875 Z M 6.109375 -2.765625 "/></g></g></g><g fill="#000000" fill-opacity="1"><g transform="translate(41.214398, 20.695832)"><g><path d="M 11.71875 -9.984375 L 8.671875 -9.984375 L 8.671875 -9.65625 L 9.828125 -9.65625 L 9.828125 -9.40625 L 11.09375 -9.40625 L 11.09375 -9.15625 L 11.0625 -9.15625 L 11.0625 -8.921875 L 11.53125 -8.921875 L 11.53125 -8.59375 L 9.75 -8.59375 L 9.75 -8.5 L 9.40625 -8.5 L 9.40625 -8.390625 C 9.40625 -8.316406 9.390625 -8.242188 9.359375 -8.171875 L 10.515625 -8.171875 C 10.441406 -8.023438 10.316406 -7.953125 10.140625 -7.953125 L 7.421875 -7.953125 L 7.421875 -7.9375 L 7.59375 -7.9375 L 7.59375 -7.609375 L 7.625 -7.609375 L 7.625 -7.28125 L 7.546875 -7.28125 L 7.546875 -6.953125 L 7.328125 -6.953125 L 7.328125 -6.703125 L 8.140625 -6.703125 L 8.140625 -6.546875 L 7.453125 -6.546875 L 7.453125 -6.296875 L 7.09375 -6.296875 L 7.09375 -5.96875 L 7.71875 -5.96875 L 7.71875 -5.796875 L 7.609375 -5.796875 L 7.609375 -5.46875 L 7.484375 -5.46875 L 7.484375 -5.140625 L 7.296875 -5.140625 L 7.296875 -4.8125 L 7.109375 -4.8125 L 7.109375 -4.578125 L 7.71875 -4.578125 L 7.71875 -4.328125 L 7.46875 -4.328125 L 7.46875 -4 L 7.578125 -4 L 7.578125 -3.921875 L 7.6875 -3.921875 L 7.6875 -3.75 L 8.5 -3.75 L 8.5 -3.5 L 7.953125 -3.5 L 7.953125 -3.1875 L 8.1875 -3.1875 L 8.1875 -2.859375 L 7.5 -2.859375 L 7.5 -2.53125 L 7.78125 -2.53125 L 7.78125 -2.359375 L 7.90625 -2.359375 L 7.90625 -2.109375 L 8.15625 -2.109375 L 8.15625 -1.78125 L 8.0625 -1.78125 L 8.0625 -1.546875 L 7.640625 -1.546875 L 7.640625 -1.296875 L 7.59375 -1.296875 L 7.59375 -1.125 L 7.578125 -1.125 L 7.578125 -0.890625 L 7.75 -0.890625 L 7.75 -0.640625 L 7.609375 -0.640625 L 7.609375 -0.4375 C 7.609375 -0.382812 7.601562 -0.34375 7.59375 -0.3125 L 7.421875 -0.3125 C 7.390625 -0.195312 7.332031 -0.113281 7.25 -0.0625 L 7.28125 -0.0625 C 7.226562 -0.0195312 7.148438 0 7.046875 0 L 3.765625 0 C 3.679688 0 3.601562 -0.0195312 3.53125 -0.0625 L 3.484375 -0.0625 C 3.410156 -0.113281 3.351562 -0.195312 3.3125 -0.3125 L 3.453125 -0.3125 C 3.441406 -0.34375 3.4375 -0.382812 3.4375 -0.4375 L 3.4375 -0.640625 L 3.59375 -0.640625 L 3.59375 -0.890625 L 3.40625 -0.890625 L 3.40625 -1.125 L 3.421875 -1.125 L 3.421875 -1.296875 L 3.46875 -1.296875 L 3.46875 -1.546875 L 3.90625 -1.546875 L 3.90625 -1.78125 L 4 -1.78125 L 4 -2.109375 L 3.734375 -2.109375 L 3.734375 -2.359375 L 3.625 -2.359375 L 3.625 -2.53125 L 3.34375 -2.53125 L 3.34375 -2.859375 L 4.03125 -2.859375 L 4.03125 -3.1875 L 3.78125 -3.1875 L 3.78125 -3.5 L 4.34375 -3.5 L 4.34375 -3.75 L 3.53125 -3.75 L 3.53125 -3.921875 L 3.40625 -3.921875 L 3.40625 -4 L 3.3125 -4 L 3.3125 -4.328125 L 3.5625 -4.328125 L 3.5625 -4.578125 L 2.953125 -4.578125 L 2.953125 -4.8125 L 3.125 -4.8125 L 3.125 -5.140625 L 3.328125 -5.140625 L 3.328125 -5.46875 L 3.4375 -5.46875 L 3.4375 -5.796875 L 3.5625 -5.796875 L 3.5625 -5.96875 L 2.9375 -5.96875 L 2.9375 -6.296875 L 3.296875 -6.296875 L 3.296875 -6.546875 L 3.984375 -6.546875 L 3.984375 -6.703125 L 3.15625 -6.703125 L 3.15625 -6.953125 L 3.375 -6.953125 L 3.375 -7.28125 L 3.453125 -7.28125 L 3.453125 -7.609375 L 3.421875 -7.609375 L 3.421875 -7.9375 L 3.265625 -7.9375 L 3.265625 -7.953125 L 0.546875 -7.953125 C 0.378906 -7.953125 0.242188 -8.023438 0.140625 -8.171875 L -1.015625 -8.171875 C -1.023438 -8.210938 -1.035156 -8.25 -1.046875 -8.28125 C -1.066406 -8.3125 -1.078125 -8.347656 -1.078125 -8.390625 L -1.078125 -8.5 L -0.734375 -8.5 L -0.734375 -8.59375 L 1.046875 -8.59375 L 1.046875 -8.921875 L 0.578125 -8.921875 L 0.578125 -9.15625 L 0.609375 -9.15625 L 0.609375 -9.40625 L -0.65625 -9.40625 L -0.65625 -9.65625 L -1.8125 -9.65625 L -1.8125 -9.984375 L 1.234375 -9.984375 L 1.234375 -10.234375 L -0.46875 -10.234375 L -0.46875 -10.5625 L -0.140625 -10.5625 L -0.140625 -10.890625 L 0.28125 -10.890625 L 0.28125 -10.96875 L 0.53125 -10.96875 L 0.53125 -11.03125 C 0.53125 -11.132812 0.5625 -11.222656 0.625 -11.296875 L 0.265625 -11.296875 C 0.347656 -11.410156 0.46875 -11.46875 0.625 -11.46875 L 10.234375 -11.46875 C 10.378906 -11.46875 10.5 -11.410156 10.59375 -11.296875 L 10.9375 -11.296875 C 10.988281 -11.210938 11.015625 -11.125 11.015625 -11.03125 L 11.015625 -10.96875 L 10.765625 -10.96875 L 10.765625 -10.890625 L 10.34375 -10.890625 L 10.34375 -10.5625 L 10.015625 -10.5625 L 10.015625 -10.234375 L 11.71875 -10.234375 Z M 11.71875 -9.984375 "/></g></g></g><g fill="#000000" fill-opacity="1"><g transform="translate(52.257832, 20.695832)"><g><path d="M 9.21875 -8.59375 L 9.21875 -8.546875 C 9.21875 -8.441406 9.179688 -8.347656 9.109375 -8.265625 L 11.375 -8.265625 C 11.300781 -8.148438 11.1875 -8.09375 11.03125 -8.09375 L 6.34375 -8.09375 L 6.34375 -8.015625 L 5.09375 -8.015625 L 5.09375 -7.765625 L 4.546875 -7.765625 L 4.546875 -7.4375 L 5.09375 -7.4375 L 5.09375 -7.203125 L 4.953125 -7.203125 L 4.953125 -6.953125 L 4.890625 -6.953125 L 4.890625 -6.890625 L 9.25 -6.890625 C 9.351562 -6.890625 9.441406 -6.851562 9.515625 -6.78125 L 9.5625 -6.78125 C 9.613281 -6.738281 9.65625 -6.6875 9.6875 -6.625 L 9.59375 -6.625 C 9.625 -6.582031 9.640625 -6.519531 9.640625 -6.4375 L 9.640625 -6.296875 L 9.578125 -6.296875 L 9.578125 -6.21875 L 10 -6.21875 L 10 -5.890625 L 9.625 -5.890625 L 9.625 -5.71875 L 9.71875 -5.71875 L 9.71875 -5.46875 L 9.765625 -5.46875 L 9.765625 -5.390625 L 9.921875 -5.390625 L 9.921875 -5.140625 L 9.671875 -5.140625 L 9.671875 -5.0625 L 8.828125 -5.0625 L 8.828125 -4.734375 L 8.640625 -4.734375 L 8.640625 -4.484375 L 9.890625 -4.484375 L 9.890625 -4.15625 L 9.421875 -4.15625 L 9.421875 -3.96875 C 9.421875 -3.914062 9.414062 -3.867188 9.40625 -3.828125 L 9.375 -3.828125 C 9.332031 -3.710938 9.265625 -3.632812 9.171875 -3.59375 L 8.84375 -3.59375 C 8.789062 -3.550781 8.71875 -3.53125 8.625 -3.53125 L 4.265625 -3.53125 L 4.265625 -3.34375 L 4.75 -3.34375 L 4.75 -3.1875 L 5.484375 -3.1875 L 5.484375 -2.9375 L 3.953125 -2.9375 L 3.953125 -2.765625 L 5.359375 -2.765625 L 5.359375 -2.53125 L 4.296875 -2.53125 L 4.296875 -2.4375 L 5.109375 -2.4375 L 5.109375 -2.109375 L 4.65625 -2.109375 L 4.65625 -1.78125 L 4.875 -1.78125 L 4.875 -1.703125 L 4.765625 -1.703125 L 4.765625 -1.375 L 5.03125 -1.375 L 5.03125 -1.296875 L 4.921875 -1.296875 L 4.921875 -1.21875 L 4.6875 -1.21875 L 4.6875 -1.046875 L 4.921875 -1.046875 L 4.921875 -0.890625 L 4.6875 -0.890625 L 4.6875 -0.640625 L 5.453125 -0.640625 L 5.453125 -0.5625 L 5.96875 -0.5625 L 5.96875 -0.4375 C 5.96875 -0.425781 5.960938 -0.414062 5.953125 -0.40625 C 5.953125 -0.40625 5.953125 -0.398438 5.953125 -0.390625 L 7.328125 -0.390625 C 7.328125 -0.359375 7.320312 -0.332031 7.3125 -0.3125 L 5.015625 -0.3125 C 4.992188 -0.207031 4.929688 -0.125 4.828125 -0.0625 L 6.015625 -0.0625 C 5.960938 -0.0195312 5.882812 0 5.78125 0 L 2.65625 0 C 2.550781 0 2.472656 -0.0195312 2.421875 -0.0625 L 1.234375 -0.0625 C 1.148438 -0.113281 1.085938 -0.195312 1.046875 -0.3125 L 3.328125 -0.3125 C 3.328125 -0.34375 3.320312 -0.367188 3.3125 -0.390625 L 1.953125 -0.390625 L 1.953125 -0.5625 L 1.4375 -0.5625 L 1.4375 -0.640625 L 0.671875 -0.640625 L 0.671875 -0.890625 L 0.90625 -0.890625 L 0.90625 -1.046875 L 0.671875 -1.046875 L 0.671875 -1.21875 L 0.90625 -1.21875 L 0.90625 -1.296875 L 1.015625 -1.296875 L 1.015625 -1.375 L 0.75 -1.375 L 0.75 -1.703125 L 0.859375 -1.703125 L 0.859375 -1.78125 L 0.640625 -1.78125 L 0.640625 -2.109375 L 1.09375 -2.109375 L 1.09375 -2.4375 L 0.28125 -2.4375 L 0.28125 -2.53125 L 1.34375 -2.53125 L 1.34375 -2.765625 L -0.0625 -2.765625 L -0.0625 -2.9375 L 1.46875 -2.9375 L 1.46875 -3.1875 L 0.734375 -3.1875 L 0.734375 -3.34375 L 0.25 -3.34375 L 0.25 -3.59375 L 0.578125 -3.59375 L 0.578125 -3.828125 L 0.609375 -3.828125 L 0.609375 -4.15625 L 1.0625 -4.15625 L 1.0625 -4.484375 L -0.1875 -4.484375 L -0.1875 -4.734375 L 0.015625 -4.734375 L 0.015625 -5.0625 L 0.859375 -5.0625 L 0.859375 -5.140625 L 1.09375 -5.140625 L 1.09375 -5.390625 L 0.953125 -5.390625 L 0.953125 -5.46875 L 0.90625 -5.46875 L 0.90625 -5.71875 L 0.796875 -5.71875 L 0.796875 -5.890625 L 1.1875 -5.890625 L 1.1875 -6.21875 L 0.75 -6.21875 L 0.75 -6.296875 L 0.8125 -6.296875 L 0.8125 -6.625 L 0.90625 -6.625 L 0.90625 -6.78125 L 0.875 -6.78125 L 0.875 -6.953125 L 0.9375 -6.953125 L 0.9375 -7.203125 L 1.078125 -7.203125 L 1.078125 -7.4375 L 0.53125 -7.4375 L 0.53125 -7.765625 L 1.078125 -7.765625 L 1.078125 -8.015625 L 2.328125 -8.015625 L 2.328125 -8.265625 L 0.0625 -8.265625 L 0.0625 -8.59375 L 2.5625 -8.59375 L 2.5625 -8.828125 L 0.140625 -8.828125 L 0.140625 -9 L 0.21875 -9 L 0.21875 -9.15625 L 1.609375 -9.15625 L 1.609375 -9.484375 L 1 -9.484375 L 1 -9.8125 L 1.28125 -9.8125 L 1.28125 -10.140625 L 0.859375 -10.140625 L 0.859375 -10.46875 L 0.90625 -10.46875 L 0.90625 -10.71875 L 0.75 -10.71875 L 0.75 -10.96875 L 0.828125 -10.96875 L 0.828125 -11.03125 C 0.828125 -11.070312 0.835938 -11.101562 0.859375 -11.125 L 0.203125 -11.125 C 0.210938 -11.1875 0.226562 -11.234375 0.25 -11.265625 C 0.28125 -11.304688 0.3125 -11.34375 0.34375 -11.375 L 0.21875 -11.375 C 0.300781 -11.4375 0.390625 -11.46875 0.484375 -11.46875 L 8.75 -11.46875 C 8.863281 -11.46875 8.957031 -11.4375 9.03125 -11.375 L 9.15625 -11.375 C 9.238281 -11.320312 9.296875 -11.238281 9.328125 -11.125 L 9.96875 -11.125 C 9.976562 -11.101562 9.984375 -11.070312 9.984375 -11.03125 L 9.984375 -10.96875 L 9.90625 -10.96875 L 9.90625 -10.71875 L 10.046875 -10.71875 L 10.046875 -10.46875 L 10 -10.46875 L 10 -10.140625 L 10.421875 -10.140625 L 10.421875 -9.8125 L 10.140625 -9.8125 L 10.140625 -9.484375 L 10.75 -9.484375 L 10.75 -9.15625 L 9.359375 -9.15625 L 9.359375 -9 L 9.296875 -9 L 9.296875 -8.828125 L 11.703125 -8.828125 L 11.703125 -8.59375 Z M 9.21875 -8.59375 "/></g></g></g><g fill="#000000" fill-opacity="1"><g transform="translate(62.842486, 20.695832)"><g><path d="M 11.34375 -6.296875 L 12.15625 -6.296875 L 12.15625 -5.96875 L 12.015625 -5.96875 L 12.015625 -5.640625 L 11.859375 -5.640625 L 11.859375 -5.390625 L 11.515625 -5.390625 L 11.515625 -5.3125 L 11.65625 -5.3125 L 11.65625 -5.234375 L 11.1875 -5.234375 L 11.1875 -5.0625 L 11.984375 -5.0625 L 11.984375 -4.8125 L 11.5 -4.8125 L 11.5 -4.734375 L 11.515625 -4.734375 C 11.515625 -4.679688 11.507812 -4.625 11.5 -4.5625 C 11.5 -4.507812 11.5 -4.457031 11.5 -4.40625 L 11.484375 -4.40625 C 11.472656 -4.375 11.46875 -4.328125 11.46875 -4.265625 L 11.46875 -4.078125 L 11.390625 -4.078125 C 11.378906 -4.054688 11.375 -4.03125 11.375 -4 C 11.375 -3.96875 11.375 -3.941406 11.375 -3.921875 L 11.53125 -3.921875 L 11.484375 -3.59375 L 11.34375 -3.59375 C 11.332031 -3.53125 11.320312 -3.472656 11.3125 -3.421875 C 11.3125 -3.367188 11.300781 -3.316406 11.28125 -3.265625 L 11.453125 -3.265625 C 11.453125 -3.253906 11.445312 -3.242188 11.4375 -3.234375 C 11.4375 -3.222656 11.4375 -3.207031 11.4375 -3.1875 L 11.6875 -3.1875 C 11.6875 -3.164062 11.679688 -3.148438 11.671875 -3.140625 C 11.671875 -3.128906 11.671875 -3.113281 11.671875 -3.09375 L 11.375 -3.09375 C 11.363281 -3.050781 11.351562 -3.007812 11.34375 -2.96875 C 11.332031 -2.9375 11.320312 -2.898438 11.3125 -2.859375 L 11.265625 -2.859375 L 11.15625 -2.609375 L 10.984375 -2.609375 C 10.972656 -2.566406 10.957031 -2.523438 10.9375 -2.484375 C 10.914062 -2.441406 10.890625 -2.398438 10.859375 -2.359375 L 11.015625 -2.359375 C 10.992188 -2.304688 10.96875 -2.253906 10.9375 -2.203125 L 10.828125 -2.203125 C 10.816406 -2.148438 10.796875 -2.101562 10.765625 -2.0625 C 10.742188 -2.03125 10.722656 -1.992188 10.703125 -1.953125 L 11.21875 -1.953125 L 11.09375 -1.78125 L 10.484375 -1.78125 L 10.3125 -1.546875 L 10.484375 -1.546875 L 10.265625 -1.296875 L 10.4375 -1.296875 C 10.425781 -1.285156 10.410156 -1.273438 10.390625 -1.265625 C 10.378906 -1.253906 10.367188 -1.238281 10.359375 -1.21875 L 10.5625 -1.21875 C 10.519531 -1.195312 10.484375 -1.164062 10.453125 -1.125 C 10.429688 -1.09375 10.40625 -1.066406 10.375 -1.046875 L 10.0625 -1.046875 C 10.03125 -1.023438 10 -1 9.96875 -0.96875 C 9.9375 -0.9375 9.894531 -0.910156 9.84375 -0.890625 L 9.96875 -0.890625 C 9.9375 -0.867188 9.898438 -0.835938 9.859375 -0.796875 C 9.816406 -0.765625 9.773438 -0.738281 9.734375 -0.71875 L 9.703125 -0.71875 C 9.609375 -0.664062 9.507812 -0.609375 9.40625 -0.546875 C 9.3125 -0.492188 9.207031 -0.441406 9.09375 -0.390625 L 9.046875 -0.390625 C 9.015625 -0.378906 8.984375 -0.367188 8.953125 -0.359375 C 8.921875 -0.347656 8.882812 -0.332031 8.84375 -0.3125 C 8.769531 -0.28125 8.695312 -0.25 8.625 -0.21875 C 8.550781 -0.195312 8.472656 -0.171875 8.390625 -0.140625 L 8.375 -0.140625 C 8.007812 -0.0351562 7.617188 0.0390625 7.203125 0.09375 L 7.21875 0.09375 C 7.039062 0.113281 6.851562 0.128906 6.65625 0.140625 C 6.46875 0.148438 6.28125 0.15625 6.09375 0.15625 C 5.894531 0.15625 5.703125 0.148438 5.515625 0.140625 C 5.335938 0.128906 5.15625 0.113281 4.96875 0.09375 C 4.550781 0.0507812 4.148438 -0.0234375 3.765625 -0.140625 L 3.78125 -0.140625 C 3.707031 -0.171875 3.628906 -0.195312 3.546875 -0.21875 C 3.472656 -0.25 3.398438 -0.28125 3.328125 -0.3125 L 3.3125 -0.3125 C 3.28125 -0.332031 3.242188 -0.347656 3.203125 -0.359375 C 3.171875 -0.367188 3.140625 -0.378906 3.109375 -0.390625 L 3.15625 -0.390625 C 3.050781 -0.441406 2.945312 -0.492188 2.84375 -0.546875 C 2.75 -0.609375 2.65625 -0.664062 2.5625 -0.71875 L 2.59375 -0.71875 L 2.34375 -0.890625 L 2.25 -0.890625 C 2.207031 -0.910156 2.164062 -0.9375 2.125 -0.96875 C 2.09375 -1 2.0625 -1.023438 2.03125 -1.046875 L 2.34375 -1.046875 L 2.140625 -1.21875 L 1.953125 -1.21875 C 1.941406 -1.238281 1.929688 -1.253906 1.921875 -1.265625 C 1.910156 -1.273438 1.894531 -1.285156 1.875 -1.296875 L 1.703125 -1.296875 C 1.660156 -1.335938 1.617188 -1.375 1.578125 -1.40625 C 1.546875 -1.445312 1.507812 -1.492188 1.46875 -1.546875 L 1.296875 -1.546875 L 1.09375 -1.78125 L 1.703125 -1.78125 L 1.609375 -1.953125 L 1.078125 -1.953125 C 1.054688 -1.992188 1.035156 -2.03125 1.015625 -2.0625 C 0.992188 -2.101562 0.972656 -2.148438 0.953125 -2.203125 L 1.046875 -2.203125 C 1.015625 -2.253906 0.988281 -2.304688 0.96875 -2.359375 L 0.8125 -2.359375 C 0.789062 -2.398438 0.769531 -2.441406 0.75 -2.484375 C 0.738281 -2.523438 0.722656 -2.566406 0.703125 -2.609375 L 0.90625 -2.609375 L 0.796875 -2.859375 L 0.859375 -2.859375 C 0.835938 -2.898438 0.820312 -2.9375 0.8125 -2.96875 C 0.800781 -3.007812 0.789062 -3.050781 0.78125 -3.09375 L 0.96875 -3.09375 C 0.957031 -3.113281 0.953125 -3.144531 0.953125 -3.1875 L 0.78125 -3.1875 C 0.78125 -3.207031 0.773438 -3.222656 0.765625 -3.234375 C 0.765625 -3.242188 0.765625 -3.253906 0.765625 -3.265625 L 0.734375 -3.265625 C 0.722656 -3.316406 0.710938 -3.367188 0.703125 -3.421875 C 0.691406 -3.472656 0.679688 -3.53125 0.671875 -3.59375 L 0.75 -3.59375 C 0.738281 -3.644531 0.726562 -3.695312 0.71875 -3.75 C 0.71875 -3.800781 0.71875 -3.859375 0.71875 -3.921875 L 0.625 -3.921875 L 0.609375 -4.078125 L 0.71875 -4.078125 L 0.71875 -4.265625 C 0.71875 -4.285156 0.710938 -4.304688 0.703125 -4.328125 C 0.703125 -4.359375 0.703125 -4.382812 0.703125 -4.40625 L 0.484375 -4.40625 C 0.472656 -4.457031 0.46875 -4.507812 0.46875 -4.5625 C 0.46875 -4.625 0.46875 -4.679688 0.46875 -4.734375 L 0.59375 -4.734375 L 0.59375 -4.8125 L 0.546875 -4.8125 L 0.546875 -5.0625 L 0.875 -5.0625 L 0.875 -5.234375 L 0.296875 -5.234375 L 0.296875 -5.3125 L 0.609375 -5.3125 L 0.609375 -5.390625 L 0.59375 -5.390625 L 0.59375 -5.640625 L 0.515625 -5.640625 L 0.515625 -5.96875 L 0.609375 -5.96875 L 0.609375 -6.296875 L 0.484375 -6.296875 L 0.484375 -6.546875 L -0.109375 -6.546875 L -0.109375 -6.875 L 0.59375 -6.875 C 0.601562 -6.894531 0.609375 -6.921875 0.609375 -6.953125 L 0.875 -6.953125 L 0.875 -7.03125 L 0.671875 -7.03125 L 0.671875 -7.203125 L 0.6875 -7.203125 L 0.71875 -7.515625 L 0.6875 -7.515625 C 0.6875 -7.566406 0.6875 -7.609375 0.6875 -7.640625 C 0.695312 -7.679688 0.707031 -7.722656 0.71875 -7.765625 L 0.671875 -7.765625 C 0.671875 -7.804688 0.671875 -7.847656 0.671875 -7.890625 C 0.679688 -7.929688 0.691406 -7.972656 0.703125 -8.015625 L 0.671875 -8.015625 C 0.679688 -8.054688 0.691406 -8.09375 0.703125 -8.125 C 0.710938 -8.164062 0.722656 -8.210938 0.734375 -8.265625 L 0.28125 -8.265625 C 0.28125 -8.285156 0.28125 -8.300781 0.28125 -8.3125 C 0.289062 -8.320312 0.296875 -8.332031 0.296875 -8.34375 L 0.78125 -8.34375 L 0.828125 -8.5 L 0.796875 -8.5 L 0.828125 -8.59375 L 1.078125 -8.59375 C 1.085938 -8.613281 1.097656 -8.640625 1.109375 -8.671875 C 1.117188 -8.703125 1.128906 -8.726562 1.140625 -8.75 L 0.984375 -8.75 C 1.015625 -8.851562 1.054688 -8.960938 1.109375 -9.078125 L 1.0625 -9.078125 C 1.09375 -9.128906 1.125 -9.1875 1.15625 -9.25 C 1.1875 -9.3125 1.21875 -9.363281 1.25 -9.40625 L 1.296875 -9.40625 L 1.34375 -9.484375 L 1.078125 -9.484375 L 1.125 -9.578125 L 1.390625 -9.578125 L 1.4375 -9.65625 L 1.40625 -9.65625 L 1.609375 -9.90625 L 1.484375 -9.90625 L 1.703125 -10.140625 C 1.753906 -10.203125 1.8125 -10.257812 1.875 -10.3125 C 1.9375 -10.375 2 -10.425781 2.0625 -10.46875 L 1.90625 -10.46875 L 2 -10.5625 L 1.8125 -10.5625 C 1.84375 -10.582031 1.863281 -10.597656 1.875 -10.609375 C 1.894531 -10.617188 1.914062 -10.628906 1.9375 -10.640625 L 2.34375 -10.640625 C 2.382812 -10.660156 2.425781 -10.6875 2.46875 -10.71875 C 2.519531 -10.75 2.566406 -10.773438 2.609375 -10.796875 L 2.65625 -10.796875 C 2.757812 -10.859375 2.863281 -10.914062 2.96875 -10.96875 C 3.082031 -11.03125 3.195312 -11.082031 3.3125 -11.125 L 3.359375 -11.125 C 3.578125 -11.226562 3.816406 -11.3125 4.078125 -11.375 L 4.15625 -11.375 C 4.476562 -11.457031 4.8125 -11.519531 5.15625 -11.5625 C 5.507812 -11.613281 5.875 -11.640625 6.25 -11.640625 C 7.019531 -11.640625 7.707031 -11.550781 8.3125 -11.375 L 8.21875 -11.375 C 8.332031 -11.34375 8.445312 -11.304688 8.5625 -11.265625 C 8.6875 -11.234375 8.804688 -11.1875 8.921875 -11.125 L 8.84375 -11.125 C 8.96875 -11.082031 9.082031 -11.03125 9.1875 -10.96875 C 9.289062 -10.914062 9.394531 -10.859375 9.5 -10.796875 L 9.4375 -10.796875 L 9.6875 -10.640625 L 9.28125 -10.640625 C 9.300781 -10.628906 9.316406 -10.617188 9.328125 -10.609375 C 9.347656 -10.597656 9.367188 -10.582031 9.390625 -10.5625 L 9.578125 -10.5625 C 9.597656 -10.550781 9.617188 -10.535156 9.640625 -10.515625 C 9.660156 -10.503906 9.675781 -10.488281 9.6875 -10.46875 L 9.84375 -10.46875 C 9.914062 -10.425781 9.976562 -10.375 10.03125 -10.3125 C 10.09375 -10.257812 10.15625 -10.203125 10.21875 -10.140625 L 10.234375 -10.140625 C 10.273438 -10.097656 10.3125 -10.054688 10.34375 -10.015625 C 10.375 -9.984375 10.40625 -9.945312 10.4375 -9.90625 L 10.5625 -9.90625 L 10.75 -9.65625 L 10.78125 -9.65625 C 10.8125 -9.625 10.832031 -9.597656 10.84375 -9.578125 L 10.59375 -9.578125 L 10.640625 -9.484375 L 10.921875 -9.484375 L 10.96875 -9.40625 L 10.921875 -9.40625 C 10.953125 -9.363281 10.976562 -9.3125 11 -9.25 C 11.03125 -9.1875 11.0625 -9.128906 11.09375 -9.078125 L 11.140625 -9.078125 L 11.296875 -8.75 L 11.453125 -8.75 L 11.5 -8.59375 L 11.265625 -8.59375 L 11.296875 -8.5 L 11.328125 -8.5 L 11.375 -8.34375 L 11.328125 -8.34375 C 11.328125 -8.332031 11.328125 -8.320312 11.328125 -8.3125 C 11.335938 -8.300781 11.34375 -8.285156 11.34375 -8.265625 L 10.65625 -8.265625 C 10.675781 -8.210938 10.6875 -8.164062 10.6875 -8.125 C 10.695312 -8.09375 10.707031 -8.054688 10.71875 -8.015625 L 11.578125 -8.015625 C 11.585938 -7.972656 11.59375 -7.929688 11.59375 -7.890625 C 11.601562 -7.847656 11.609375 -7.804688 11.609375 -7.765625 L 11.375 -7.765625 C 11.382812 -7.722656 11.390625 -7.679688 11.390625 -7.640625 C 11.398438 -7.609375 11.40625 -7.566406 11.40625 -7.515625 L 11.625 -7.515625 L 11.65625 -7.203125 L 11.4375 -7.203125 L 11.4375 -7.140625 C 11.4375 -7.128906 11.4375 -7.113281 11.4375 -7.09375 C 11.445312 -7.070312 11.453125 -7.050781 11.453125 -7.03125 L 11.90625 -7.03125 L 11.90625 -6.953125 L 11.5 -6.953125 C 11.507812 -6.929688 11.515625 -6.90625 11.515625 -6.875 L 11.8125 -6.875 C 11.820312 -6.8125 11.828125 -6.753906 11.828125 -6.703125 C 11.828125 -6.648438 11.828125 -6.597656 11.828125 -6.546875 L 11.34375 -6.546875 Z M 7.75 -5.96875 L 7.90625 -5.96875 L 7.90625 -6.296875 L 7.078125 -6.296875 L 7.078125 -6.546875 L 7.578125 -6.546875 C 7.578125 -6.597656 7.578125 -6.648438 7.578125 -6.703125 C 7.578125 -6.753906 7.570312 -6.8125 7.5625 -6.875 L 7.265625 -6.875 C 7.265625 -6.894531 7.257812 -6.910156 7.25 -6.921875 C 7.25 -6.929688 7.25 -6.941406 7.25 -6.953125 L 7.640625 -6.953125 L 7.640625 -7.03125 L 7.203125 -7.03125 C 7.203125 -7.050781 7.195312 -7.066406 7.1875 -7.078125 C 7.175781 -7.085938 7.171875 -7.097656 7.171875 -7.109375 L 7.171875 -7.203125 L 7.375 -7.203125 C 7.375 -7.253906 7.367188 -7.304688 7.359375 -7.359375 C 7.359375 -7.421875 7.351562 -7.472656 7.34375 -7.515625 L 7.125 -7.515625 C 7.113281 -7.566406 7.101562 -7.609375 7.09375 -7.640625 C 7.082031 -7.679688 7.066406 -7.722656 7.046875 -7.765625 L 7.28125 -7.765625 C 7.25 -7.859375 7.203125 -7.941406 7.140625 -8.015625 L 6.296875 -8.015625 C 6.242188 -8.097656 6.15625 -8.179688 6.03125 -8.265625 L 6.71875 -8.265625 C 6.65625 -8.304688 6.609375 -8.332031 6.578125 -8.34375 L 6.625 -8.34375 C 6.457031 -8.40625 6.273438 -8.4375 6.078125 -8.4375 C 5.878906 -8.4375 5.703125 -8.40625 5.546875 -8.34375 L 5.0625 -8.34375 C 5.019531 -8.332031 4.96875 -8.304688 4.90625 -8.265625 L 5.359375 -8.265625 C 5.273438 -8.203125 5.1875 -8.117188 5.09375 -8.015625 L 5.125 -8.015625 C 5.070312 -7.941406 5.03125 -7.859375 5 -7.765625 L 5.046875 -7.765625 C 5.035156 -7.722656 5.023438 -7.679688 5.015625 -7.640625 C 5.003906 -7.609375 4.988281 -7.566406 4.96875 -7.515625 L 5 -7.515625 C 4.988281 -7.472656 4.976562 -7.421875 4.96875 -7.359375 C 4.96875 -7.304688 4.96875 -7.253906 4.96875 -7.203125 L 4.9375 -7.203125 L 4.9375 -7.03125 L 5.125 -7.03125 L 5.125 -6.953125 L 4.875 -6.953125 L 4.875 -6.875 L 4.140625 -6.875 L 4.140625 -6.546875 L 4.75 -6.546875 L 4.75 -6.296875 L 4.875 -6.296875 L 4.875 -5.96875 L 4.765625 -5.96875 L 4.765625 -5.640625 L 4.859375 -5.640625 L 4.859375 -5.390625 L 4.875 -5.390625 C 4.875 -5.359375 4.878906 -5.332031 4.890625 -5.3125 L 4.5625 -5.3125 L 4.5625 -5.234375 L 5.125 -5.234375 L 5.125 -5.0625 L 4.796875 -5.0625 L 4.796875 -4.8125 L 4.859375 -4.8125 L 4.859375 -4.734375 L 4.734375 -4.734375 C 4.734375 -4.679688 4.734375 -4.625 4.734375 -4.5625 C 4.742188 -4.507812 4.75 -4.457031 4.75 -4.40625 L 4.984375 -4.40625 L 4.984375 -4.359375 C 4.984375 -4.316406 4.984375 -4.269531 4.984375 -4.21875 C 4.984375 -4.164062 4.988281 -4.117188 5 -4.078125 L 4.890625 -4.078125 C 4.898438 -4.054688 4.90625 -4.03125 4.90625 -4 C 4.90625 -3.96875 4.910156 -3.941406 4.921875 -3.921875 L 5.015625 -3.921875 C 5.023438 -3.859375 5.039062 -3.800781 5.0625 -3.75 C 5.082031 -3.695312 5.101562 -3.644531 5.125 -3.59375 L 5.046875 -3.59375 C 5.109375 -3.46875 5.195312 -3.359375 5.3125 -3.265625 L 5.34375 -3.265625 C 5.363281 -3.253906 5.382812 -3.238281 5.40625 -3.21875 C 5.425781 -3.207031 5.445312 -3.195312 5.46875 -3.1875 L 5.625 -3.1875 C 5.65625 -3.164062 5.6875 -3.144531 5.71875 -3.125 C 5.75 -3.113281 5.78125 -3.101562 5.8125 -3.09375 L 5.625 -3.09375 C 5.75 -3.050781 5.898438 -3.03125 6.078125 -3.03125 C 6.253906 -3.03125 6.410156 -3.050781 6.546875 -3.09375 L 6.8125 -3.09375 C 6.851562 -3.101562 6.890625 -3.113281 6.921875 -3.125 C 6.953125 -3.144531 6.984375 -3.164062 7.015625 -3.1875 L 6.75 -3.1875 C 6.769531 -3.195312 6.789062 -3.207031 6.8125 -3.21875 C 6.832031 -3.238281 6.859375 -3.253906 6.890625 -3.265625 L 6.703125 -3.265625 C 6.796875 -3.335938 6.882812 -3.445312 6.96875 -3.59375 L 7.109375 -3.59375 C 7.171875 -3.707031 7.21875 -3.816406 7.25 -3.921875 L 7.078125 -3.921875 C 7.085938 -3.941406 7.09375 -3.96875 7.09375 -4 C 7.09375 -4.03125 7.097656 -4.054688 7.109375 -4.078125 L 7.203125 -4.078125 C 7.210938 -4.117188 7.21875 -4.164062 7.21875 -4.21875 C 7.21875 -4.269531 7.21875 -4.316406 7.21875 -4.359375 L 7.21875 -4.40625 L 7.25 -4.40625 C 7.25 -4.457031 7.25 -4.507812 7.25 -4.5625 C 7.25 -4.625 7.253906 -4.679688 7.265625 -4.734375 L 7.25 -4.734375 L 7.25 -4.8125 L 7.71875 -4.8125 L 7.71875 -5.0625 L 6.9375 -5.0625 L 6.9375 -5.234375 L 7.390625 -5.234375 L 7.390625 -5.3125 L 7.265625 -5.3125 L 7.265625 -5.390625 L 7.609375 -5.390625 L 7.609375 -5.640625 L 7.75 -5.640625 Z M 7.75 -5.96875 "/></g></g></g><g fill="#000000" fill-opacity="1"><g transform="translate(75.000096, 20.695832)"><g><path d="M 0.578125 -11.046875 C 0.585938 -11.078125 0.59375 -11.101562 0.59375 -11.125 C 0.601562 -11.15625 0.613281 -11.1875 0.625 -11.21875 L -1.1875 -11.21875 C -1.15625 -11.25 -1.128906 -11.273438 -1.109375 -11.296875 C -1.085938 -11.328125 -1.066406 -11.351562 -1.046875 -11.375 L 0.859375 -11.375 C 0.941406 -11.4375 1.03125 -11.46875 1.125 -11.46875 L 4.40625 -11.46875 C 4.53125 -11.46875 4.625 -11.4375 4.6875 -11.375 L 2.78125 -11.375 C 2.800781 -11.351562 2.828125 -11.328125 2.859375 -11.296875 C 2.890625 -11.273438 2.910156 -11.25 2.921875 -11.21875 L 4.703125 -11.21875 C 4.722656 -11.144531 4.734375 -11.085938 4.734375 -11.046875 L 5.65625 -11.046875 C 5.664062 -11.046875 5.671875 -11.039062 5.671875 -11.03125 L 5.671875 -10.890625 L 3.453125 -10.890625 L 3.453125 -10.5625 L 4.375 -10.5625 L 4.375 -10.3125 L 4.28125 -10.3125 L 4.28125 -9.984375 L 3.6875 -9.984375 L 3.6875 -9.65625 L 5.015625 -9.65625 L 5.015625 -9.578125 L 5.109375 -9.578125 L 5.109375 -9.25 L 5.171875 -9.25 L 5.171875 -8.921875 L 5.0625 -8.921875 L 5.0625 -8.59375 L 4.984375 -8.59375 L 4.984375 -8.171875 L 5.265625 -8.171875 L 5.265625 -7.84375 L 4.953125 -7.84375 L 4.953125 -7.515625 L 5.015625 -7.515625 L 5.015625 -7.4375 L 6.171875 -7.4375 L 6.171875 -7.109375 L 6.78125 -7.109375 L 6.78125 -6.953125 L 4.265625 -6.953125 L 4.265625 -6.78125 L 5.09375 -6.78125 L 5.09375 -6.453125 L 4.40625 -6.453125 L 4.40625 -6.125 L 5 -6.125 L 5 -5.96875 L 5.109375 -5.96875 L 5.109375 -5.71875 L 7.3125 -5.71875 L 7.3125 -5.5625 L 8.828125 -5.5625 L 8.828125 -5.234375 L 4.671875 -5.234375 L 4.671875 -5.5625 L 3.140625 -5.5625 L 3.140625 -5.71875 L 0.953125 -5.71875 L 0.953125 -5.96875 L 0.828125 -5.96875 L 0.828125 -6.125 L 0.25 -6.125 L 0.25 -6.453125 L 0.9375 -6.453125 L 0.9375 -6.78125 L 0.09375 -6.78125 L 0.09375 -6.953125 L 2.625 -6.953125 L 2.625 -7.109375 L 2.015625 -7.109375 L 2.015625 -7.4375 L 0.859375 -7.4375 L 0.859375 -7.515625 L 0.78125 -7.515625 L 0.78125 -7.84375 L 1.09375 -7.84375 L 1.09375 -8.171875 L 0.8125 -8.171875 L 0.8125 -8.59375 L 0.90625 -8.59375 L 0.90625 -8.921875 L 1.015625 -8.921875 L 1.015625 -9.25 L 0.953125 -9.25 L 0.953125 -9.578125 L 0.859375 -9.578125 L 0.859375 -9.65625 L -0.46875 -9.65625 L -0.46875 -9.984375 L 0.109375 -9.984375 L 0.109375 -10.3125 L 0.21875 -10.3125 L 0.21875 -10.5625 L -0.703125 -10.5625 L -0.703125 -10.890625 L 1.515625 -10.890625 L 1.515625 -11.046875 Z M 11.46875 -2.203125 L 7 -2.203125 L 7 -2.109375 L 7.328125 -2.109375 L 7.328125 -1.875 L 9.65625 -1.875 L 9.65625 -1.78125 L 8.9375 -1.78125 L 8.9375 -1.453125 L 10.078125 -1.453125 L 10.078125 -1.21875 L 10.25 -1.21875 L 10.25 -1.125 L 10.125 -1.125 L 10.125 -1.046875 L 10.078125 -1.046875 L 10.078125 -0.71875 L 10.109375 -0.71875 L 10.109375 -0.46875 L 10.046875 -0.46875 L 10.046875 -0.390625 L 9.96875 -0.390625 C 9.957031 -0.367188 9.953125 -0.34375 9.953125 -0.3125 L 10.125 -0.3125 C 10.09375 -0.195312 10.035156 -0.113281 9.953125 -0.0625 L 9.765625 -0.0625 C 9.710938 -0.0195312 9.640625 0 9.546875 0 L 1.28125 0 C 1.175781 0 1.097656 -0.0195312 1.046875 -0.0625 L 1.21875 -0.0625 C 1.113281 -0.113281 1.046875 -0.195312 1.015625 -0.3125 L 0.828125 -0.3125 C 0.828125 -0.332031 0.820312 -0.347656 0.8125 -0.359375 C 0.8125 -0.367188 0.8125 -0.378906 0.8125 -0.390625 L 0.90625 -0.390625 L 0.90625 -0.46875 L 0.96875 -0.46875 L 0.96875 -0.71875 L 0.9375 -0.71875 L 0.9375 -1.046875 L 0.984375 -1.046875 L 0.984375 -1.125 L 1.09375 -1.125 L 1.09375 -1.21875 L 0.9375 -1.21875 L 0.9375 -1.453125 L -0.21875 -1.453125 L -0.21875 -1.78125 L 0.515625 -1.78125 L 0.515625 -1.875 L -1.8125 -1.875 L -1.8125 -2.109375 L -2.140625 -2.109375 L -2.140625 -2.203125 L 2.328125 -2.203125 L 2.328125 -2.4375 L 0.515625 -2.4375 L 0.515625 -2.6875 L 2.28125 -2.6875 L 2.28125 -2.765625 L -1.59375 -2.765625 L -1.59375 -3.015625 L -1.03125 -3.015625 L -1.03125 -3.09375 L 1.09375 -3.09375 L 1.09375 -3.1875 L 0.34375 -3.1875 L 0.34375 -3.421875 L 1.625 -3.421875 L 1.625 -3.75 L 0.328125 -3.75 L 0.328125 -3.921875 L 1.390625 -3.921875 L 1.390625 -4 L 0.90625 -4 L 0.90625 -4.25 L 1.375 -4.25 L 1.375 -4.40625 L 0.765625 -4.40625 L 0.765625 -4.578125 L 2.203125 -4.578125 L 2.203125 -4.8125 L 2.609375 -4.8125 L 2.609375 -4.984375 L 0.359375 -4.984375 L 0.359375 -5.234375 L 4.53125 -5.234375 L 4.53125 -4.984375 L 6.765625 -4.984375 L 6.765625 -4.8125 L 6.359375 -4.8125 L 6.359375 -4.578125 L 4.9375 -4.578125 L 4.9375 -4.40625 L 5.546875 -4.40625 L 5.546875 -4.25 L 5.0625 -4.25 L 5.0625 -4 L 5.5625 -4 L 5.5625 -3.921875 L 4.484375 -3.921875 L 4.484375 -3.75 L 5.78125 -3.75 L 5.78125 -3.421875 L 4.5 -3.421875 L 4.5 -3.359375 L 9.046875 -3.359375 C 9.203125 -3.359375 9.320312 -3.300781 9.40625 -3.1875 L 10.15625 -3.1875 L 10.21875 -3.09375 L 8.078125 -3.09375 L 8.109375 -3.015625 L 7.546875 -3.015625 C 7.554688 -2.992188 7.5625 -2.960938 7.5625 -2.921875 L 7.5625 -2.765625 L 11.421875 -2.765625 L 11.421875 -2.6875 L 9.65625 -2.6875 L 9.65625 -2.4375 L 11.46875 -2.4375 Z M 11.46875 -2.203125 "/></g></g></g><g fill="#000000" fill-opacity="1"><g transform="translate(85.257056, 20.695832)"><g><path d="M 7.15625 -8.671875 L 4.484375 -8.671875 L 4.484375 -8.34375 L 5.5625 -8.34375 L 5.5625 -8.015625 L 6.96875 -8.015625 L 6.96875 -7.765625 L 5.375 -7.765625 L 5.375 -7.6875 L 5.578125 -7.6875 L 5.578125 -7.359375 L 5.15625 -7.359375 L 5.15625 -7.28125 L 5.125 -7.28125 L 5.125 -7.203125 L 4.71875 -7.203125 L 4.71875 -6.875 L 5.484375 -6.875 L 5.484375 -6.78125 L 5.53125 -6.78125 L 5.53125 -6.703125 L 5.34375 -6.703125 L 5.34375 -6.453125 L 5.234375 -6.453125 L 5.234375 -6.375 L 5.765625 -6.375 L 5.765625 -6.046875 L 4.453125 -6.046875 L 4.453125 -5.71875 L 4.9375 -5.71875 L 4.9375 -5.46875 L 5.203125 -5.46875 L 5.203125 -5.140625 L 5.234375 -5.140625 L 5.234375 -4.8125 L 5.09375 -4.8125 L 5.09375 -4.40625 L 5.25 -4.40625 L 5.25 -4.25 L 5.140625 -4.25 L 5.140625 -4 L 5.125 -4 L 5.125 -3.921875 L 5 -3.921875 L 5 -3.59375 L 5.140625 -3.59375 L 5.140625 -3.421875 L 5.125 -3.421875 L 5.125 -2.4375 L 5.140625 -2.4375 L 5.140625 -2.109375 L 5.421875 -2.109375 L 5.421875 -1.78125 L 5.203125 -1.78125 L 5.203125 -1.625 L 5.125 -1.625 L 5.125 -1.453125 L 5.328125 -1.453125 L 5.328125 -1.125 L 5.046875 -1.125 L 5.046875 -1.046875 L 5.453125 -1.046875 L 5.453125 -0.890625 L 5.609375 -0.890625 L 5.609375 -0.796875 L 5.46875 -0.796875 L 5.46875 -0.5625 L 5.40625 -0.5625 L 5.40625 -0.4375 C 5.40625 -0.414062 5.398438 -0.394531 5.390625 -0.375 C 5.390625 -0.351562 5.382812 -0.332031 5.375 -0.3125 L 4.96875 -0.3125 C 4.957031 -0.257812 4.925781 -0.203125 4.875 -0.140625 L 5.328125 -0.140625 C 5.285156 -0.0976562 5.253906 -0.0703125 5.234375 -0.0625 L 4.296875 -0.0625 C 4.242188 -0.0195312 4.164062 0 4.0625 0 L 0.71875 0 C 0.625 0 0.546875 -0.0195312 0.484375 -0.0625 L 1.421875 -0.0625 C 1.378906 -0.0703125 1.347656 -0.0976562 1.328125 -0.140625 L 0.875 -0.140625 C 0.8125 -0.203125 0.773438 -0.257812 0.765625 -0.3125 L 1.203125 -0.3125 C 1.191406 -0.34375 1.1875 -0.382812 1.1875 -0.4375 L 1.1875 -0.5625 L 1.25 -0.5625 L 1.25 -0.796875 L 1.375 -0.796875 L 1.375 -0.890625 L 1.234375 -0.890625 L 1.234375 -1.046875 L 0.8125 -1.046875 L 0.8125 -1.125 L 1.09375 -1.125 L 1.09375 -1.453125 L 0.90625 -1.453125 L 0.90625 -1.625 L 0.96875 -1.625 L 0.96875 -1.78125 L 1.203125 -1.78125 L 1.203125 -2.109375 L 0.921875 -2.109375 L 0.921875 -2.4375 L 0.90625 -2.4375 L 0.90625 -3.421875 L 0.921875 -3.421875 L 0.921875 -3.59375 L 0.765625 -3.59375 L 0.765625 -3.921875 L 0.90625 -3.921875 L 0.90625 -4 L 0.921875 -4 L 0.921875 -4.25 L 1.015625 -4.25 L 1.015625 -4.40625 L 0.875 -4.40625 L 0.875 -4.8125 L 1 -4.8125 L 1 -5.140625 L 0.96875 -5.140625 L 0.96875 -5.46875 L 0.703125 -5.46875 L 0.703125 -5.71875 L 0.234375 -5.71875 L 0.234375 -6.046875 L 1.546875 -6.046875 L 1.546875 -6.375 L 1 -6.375 L 1 -6.453125 L 1.109375 -6.453125 L 1.109375 -6.703125 L 1.296875 -6.703125 L 1.296875 -6.78125 L 1.265625 -6.78125 L 1.265625 -6.875 L 0.484375 -6.875 L 0.484375 -7.203125 L 0.90625 -7.203125 L 0.90625 -7.28125 L 0.9375 -7.28125 L 0.9375 -7.359375 L 1.34375 -7.359375 L 1.34375 -7.6875 L 1.140625 -7.6875 L 1.140625 -7.765625 L 2.734375 -7.765625 L 2.734375 -8.015625 L 1.328125 -8.015625 L 1.328125 -8.34375 L 0.265625 -8.34375 L 0.265625 -8.671875 L 2.9375 -8.671875 L 2.9375 -8.75 L 1.265625 -8.75 L 1.265625 -9 L 1.25 -9 L 1.25 -9.25 L 0.953125 -9.25 L 0.953125 -9.328125 L 1.953125 -9.328125 L 1.953125 -9.484375 L 1.203125 -9.484375 L 1.203125 -9.8125 L 1.265625 -9.8125 L 1.265625 -10.0625 L 0.796875 -10.0625 L 0.796875 -10.390625 L 0.890625 -10.390625 L 0.890625 -10.5625 L 0.828125 -10.5625 L 0.828125 -10.71875 L 0.96875 -10.71875 L 0.96875 -10.796875 L 0.8125 -10.796875 L 0.8125 -11.03125 C 0.8125 -11.082031 0.828125 -11.144531 0.859375 -11.21875 L 0.9375 -11.21875 C 1.007812 -11.382812 1.144531 -11.46875 1.34375 -11.46875 L 4.6875 -11.46875 C 4.882812 -11.46875 5.019531 -11.382812 5.09375 -11.21875 L 5.015625 -11.21875 C 5.035156 -11.144531 5.046875 -11.082031 5.046875 -11.03125 L 5.046875 -10.796875 L 5.203125 -10.796875 L 5.203125 -10.71875 L 5.0625 -10.71875 L 5.0625 -10.5625 L 5.109375 -10.5625 L 5.109375 -10.390625 L 5.03125 -10.390625 L 5.03125 -10.0625 L 5.484375 -10.0625 L 5.484375 -9.8125 L 5.421875 -9.8125 L 5.421875 -9.484375 L 6.171875 -9.484375 L 6.171875 -9.328125 L 5.171875 -9.328125 L 5.171875 -9.25 L 5.46875 -9.25 L 5.46875 -9 L 5.484375 -9 L 5.484375 -8.75 L 7.15625 -8.75 Z M 7.15625 -8.671875 "/></g></g></g><g fill="#000000" fill-opacity="1"><g transform="translate(91.286707, 20.695832)"><g><path d="M 11.34375 -6.296875 L 12.15625 -6.296875 L 12.15625 -5.96875 L 12.015625 -5.96875 L 12.015625 -5.640625 L 11.859375 -5.640625 L 11.859375 -5.390625 L 11.515625 -5.390625 L 11.515625 -5.3125 L 11.65625 -5.3125 L 11.65625 -5.234375 L 11.1875 -5.234375 L 11.1875 -5.0625 L 11.984375 -5.0625 L 11.984375 -4.8125 L 11.5 -4.8125 L 11.5 -4.734375 L 11.515625 -4.734375 C 11.515625 -4.679688 11.507812 -4.625 11.5 -4.5625 C 11.5 -4.507812 11.5 -4.457031 11.5 -4.40625 L 11.484375 -4.40625 C 11.472656 -4.375 11.46875 -4.328125 11.46875 -4.265625 L 11.46875 -4.078125 L 11.390625 -4.078125 C 11.378906 -4.054688 11.375 -4.03125 11.375 -4 C 11.375 -3.96875 11.375 -3.941406 11.375 -3.921875 L 11.53125 -3.921875 L 11.484375 -3.59375 L 11.34375 -3.59375 C 11.332031 -3.53125 11.320312 -3.472656 11.3125 -3.421875 C 11.3125 -3.367188 11.300781 -3.316406 11.28125 -3.265625 L 11.453125 -3.265625 C 11.453125 -3.253906 11.445312 -3.242188 11.4375 -3.234375 C 11.4375 -3.222656 11.4375 -3.207031 11.4375 -3.1875 L 11.6875 -3.1875 C 11.6875 -3.164062 11.679688 -3.148438 11.671875 -3.140625 C 11.671875 -3.128906 11.671875 -3.113281 11.671875 -3.09375 L 11.375 -3.09375 C 11.363281 -3.050781 11.351562 -3.007812 11.34375 -2.96875 C 11.332031 -2.9375 11.320312 -2.898438 11.3125 -2.859375 L 11.265625 -2.859375 L 11.15625 -2.609375 L 10.984375 -2.609375 C 10.972656 -2.566406 10.957031 -2.523438 10.9375 -2.484375 C 10.914062 -2.441406 10.890625 -2.398438 10.859375 -2.359375 L 11.015625 -2.359375 C 10.992188 -2.304688 10.96875 -2.253906 10.9375 -2.203125 L 10.828125 -2.203125 C 10.816406 -2.148438 10.796875 -2.101562 10.765625 -2.0625 C 10.742188 -2.03125 10.722656 -1.992188 10.703125 -1.953125 L 11.21875 -1.953125 L 11.09375 -1.78125 L 10.484375 -1.78125 L 10.3125 -1.546875 L 10.484375 -1.546875 L 10.265625 -1.296875 L 10.4375 -1.296875 C 10.425781 -1.285156 10.410156 -1.273438 10.390625 -1.265625 C 10.378906 -1.253906 10.367188 -1.238281 10.359375 -1.21875 L 10.5625 -1.21875 C 10.519531 -1.195312 10.484375 -1.164062 10.453125 -1.125 C 10.429688 -1.09375 10.40625 -1.066406 10.375 -1.046875 L 10.0625 -1.046875 C 10.03125 -1.023438 10 -1 9.96875 -0.96875 C 9.9375 -0.9375 9.894531 -0.910156 9.84375 -0.890625 L 9.96875 -0.890625 C 9.9375 -0.867188 9.898438 -0.835938 9.859375 -0.796875 C 9.816406 -0.765625 9.773438 -0.738281 9.734375 -0.71875 L 9.703125 -0.71875 C 9.609375 -0.664062 9.507812 -0.609375 9.40625 -0.546875 C 9.3125 -0.492188 9.207031 -0.441406 9.09375 -0.390625 L 9.046875 -0.390625 C 9.015625 -0.378906 8.984375 -0.367188 8.953125 -0.359375 C 8.921875 -0.347656 8.882812 -0.332031 8.84375 -0.3125 C 8.769531 -0.28125 8.695312 -0.25 8.625 -0.21875 C 8.550781 -0.195312 8.472656 -0.171875 8.390625 -0.140625 L 8.375 -0.140625 C 8.007812 -0.0351562 7.617188 0.0390625 7.203125 0.09375 L 7.21875 0.09375 C 7.039062 0.113281 6.851562 0.128906 6.65625 0.140625 C 6.46875 0.148438 6.28125 0.15625 6.09375 0.15625 C 5.894531 0.15625 5.703125 0.148438 5.515625 0.140625 C 5.335938 0.128906 5.15625 0.113281 4.96875 0.09375 C 4.550781 0.0507812 4.148438 -0.0234375 3.765625 -0.140625 L 3.78125 -0.140625 C 3.707031 -0.171875 3.628906 -0.195312 3.546875 -0.21875 C 3.472656 -0.25 3.398438 -0.28125 3.328125 -0.3125 L 3.3125 -0.3125 C 3.28125 -0.332031 3.242188 -0.347656 3.203125 -0.359375 C 3.171875 -0.367188 3.140625 -0.378906 3.109375 -0.390625 L 3.15625 -0.390625 C 3.050781 -0.441406 2.945312 -0.492188 2.84375 -0.546875 C 2.75 -0.609375 2.65625 -0.664062 2.5625 -0.71875 L 2.59375 -0.71875 L 2.34375 -0.890625 L 2.25 -0.890625 C 2.207031 -0.910156 2.164062 -0.9375 2.125 -0.96875 C 2.09375 -1 2.0625 -1.023438 2.03125 -1.046875 L 2.34375 -1.046875 L 2.140625 -1.21875 L 1.953125 -1.21875 C 1.941406 -1.238281 1.929688 -1.253906 1.921875 -1.265625 C 1.910156 -1.273438 1.894531 -1.285156 1.875 -1.296875 L 1.703125 -1.296875 C 1.660156 -1.335938 1.617188 -1.375 1.578125 -1.40625 C 1.546875 -1.445312 1.507812 -1.492188 1.46875 -1.546875 L 1.296875 -1.546875 L 1.09375 -1.78125 L 1.703125 -1.78125 L 1.609375 -1.953125 L 1.078125 -1.953125 C 1.054688 -1.992188 1.035156 -2.03125 1.015625 -2.0625 C 0.992188 -2.101562 0.972656 -2.148438 0.953125 -2.203125 L 1.046875 -2.203125 C 1.015625 -2.253906 0.988281 -2.304688 0.96875 -2.359375 L 0.8125 -2.359375 C 0.789062 -2.398438 0.769531 -2.441406 0.75 -2.484375 C 0.738281 -2.523438 0.722656 -2.566406 0.703125 -2.609375 L 0.90625 -2.609375 L 0.796875 -2.859375 L 0.859375 -2.859375 C 0.835938 -2.898438 0.820312 -2.9375 0.8125 -2.96875 C 0.800781 -3.007812 0.789062 -3.050781 0.78125 -3.09375 L 0.96875 -3.09375 C 0.957031 -3.113281 0.953125 -3.144531 0.953125 -3.1875 L 0.78125 -3.1875 C 0.78125 -3.207031 0.773438 -3.222656 0.765625 -3.234375 C 0.765625 -3.242188 0.765625 -3.253906 0.765625 -3.265625 L 0.734375 -3.265625 C 0.722656 -3.316406 0.710938 -3.367188 0.703125 -3.421875 C 0.691406 -3.472656 0.679688 -3.53125 0.671875 -3.59375 L 0.75 -3.59375 C 0.738281 -3.644531 0.726562 -3.695312 0.71875 -3.75 C 0.71875 -3.800781 0.71875 -3.859375 0.71875 -3.921875 L 0.625 -3.921875 L 0.609375 -4.078125 L 0.71875 -4.078125 L 0.71875 -4.265625 C 0.71875 -4.285156 0.710938 -4.304688 0.703125 -4.328125 C 0.703125 -4.359375 0.703125 -4.382812 0.703125 -4.40625 L 0.484375 -4.40625 C 0.472656 -4.457031 0.46875 -4.507812 0.46875 -4.5625 C 0.46875 -4.625 0.46875 -4.679688 0.46875 -4.734375 L 0.59375 -4.734375 L 0.59375 -4.8125 L 0.546875 -4.8125 L 0.546875 -5.0625 L 0.875 -5.0625 L 0.875 -5.234375 L 0.296875 -5.234375 L 0.296875 -5.3125 L 0.609375 -5.3125 L 0.609375 -5.390625 L 0.59375 -5.390625 L 0.59375 -5.640625 L 0.515625 -5.640625 L 0.515625 -5.96875 L 0.609375 -5.96875 L 0.609375 -6.296875 L 0.484375 -6.296875 L 0.484375 -6.546875 L -0.109375 -6.546875 L -0.109375 -6.875 L 0.59375 -6.875 C 0.601562 -6.894531 0.609375 -6.921875 0.609375 -6.953125 L 0.875 -6.953125 L 0.875 -7.03125 L 0.671875 -7.03125 L 0.671875 -7.203125 L 0.6875 -7.203125 L 0.71875 -7.515625 L 0.6875 -7.515625 C 0.6875 -7.566406 0.6875 -7.609375 0.6875 -7.640625 C 0.695312 -7.679688 0.707031 -7.722656 0.71875 -7.765625 L 0.671875 -7.765625 C 0.671875 -7.804688 0.671875 -7.847656 0.671875 -7.890625 C 0.679688 -7.929688 0.691406 -7.972656 0.703125 -8.015625 L 0.671875 -8.015625 C 0.679688 -8.054688 0.691406 -8.09375 0.703125 -8.125 C 0.710938 -8.164062 0.722656 -8.210938 0.734375 -8.265625 L 0.28125 -8.265625 C 0.28125 -8.285156 0.28125 -8.300781 0.28125 -8.3125 C 0.289062 -8.320312 0.296875 -8.332031 0.296875 -8.34375 L 0.78125 -8.34375 L 0.828125 -8.5 L 0.796875 -8.5 L 0.828125 -8.59375 L 1.078125 -8.59375 C 1.085938 -8.613281 1.097656 -8.640625 1.109375 -8.671875 C 1.117188 -8.703125 1.128906 -8.726562 1.140625 -8.75 L 0.984375 -8.75 C 1.015625 -8.851562 1.054688 -8.960938 1.109375 -9.078125 L 1.0625 -9.078125 C 1.09375 -9.128906 1.125 -9.1875 1.15625 -9.25 C 1.1875 -9.3125 1.21875 -9.363281 1.25 -9.40625 L 1.296875 -9.40625 L 1.34375 -9.484375 L 1.078125 -9.484375 L 1.125 -9.578125 L 1.390625 -9.578125 L 1.4375 -9.65625 L 1.40625 -9.65625 L 1.609375 -9.90625 L 1.484375 -9.90625 L 1.703125 -10.140625 C 1.753906 -10.203125 1.8125 -10.257812 1.875 -10.3125 C 1.9375 -10.375 2 -10.425781 2.0625 -10.46875 L 1.90625 -10.46875 L 2 -10.5625 L 1.8125 -10.5625 C 1.84375 -10.582031 1.863281 -10.597656 1.875 -10.609375 C 1.894531 -10.617188 1.914062 -10.628906 1.9375 -10.640625 L 2.34375 -10.640625 C 2.382812 -10.660156 2.425781 -10.6875 2.46875 -10.71875 C 2.519531 -10.75 2.566406 -10.773438 2.609375 -10.796875 L 2.65625 -10.796875 C 2.757812 -10.859375 2.863281 -10.914062 2.96875 -10.96875 C 3.082031 -11.03125 3.195312 -11.082031 3.3125 -11.125 L 3.359375 -11.125 C 3.578125 -11.226562 3.816406 -11.3125 4.078125 -11.375 L 4.15625 -11.375 C 4.476562 -11.457031 4.8125 -11.519531 5.15625 -11.5625 C 5.507812 -11.613281 5.875 -11.640625 6.25 -11.640625 C 7.019531 -11.640625 7.707031 -11.550781 8.3125 -11.375 L 8.21875 -11.375 C 8.332031 -11.34375 8.445312 -11.304688 8.5625 -11.265625 C 8.6875 -11.234375 8.804688 -11.1875 8.921875 -11.125 L 8.84375 -11.125 C 8.96875 -11.082031 9.082031 -11.03125 9.1875 -10.96875 C 9.289062 -10.914062 9.394531 -10.859375 9.5 -10.796875 L 9.4375 -10.796875 L 9.6875 -10.640625 L 9.28125 -10.640625 C 9.300781 -10.628906 9.316406 -10.617188 9.328125 -10.609375 C 9.347656 -10.597656 9.367188 -10.582031 9.390625 -10.5625 L 9.578125 -10.5625 C 9.597656 -10.550781 9.617188 -10.535156 9.640625 -10.515625 C 9.660156 -10.503906 9.675781 -10.488281 9.6875 -10.46875 L 9.84375 -10.46875 C 9.914062 -10.425781 9.976562 -10.375 10.03125 -10.3125 C 10.09375 -10.257812 10.15625 -10.203125 10.21875 -10.140625 L 10.234375 -10.140625 C 10.273438 -10.097656 10.3125 -10.054688 10.34375 -10.015625 C 10.375 -9.984375 10.40625 -9.945312 10.4375 -9.90625 L 10.5625 -9.90625 L 10.75 -9.65625 L 10.78125 -9.65625 C 10.8125 -9.625 10.832031 -9.597656 10.84375 -9.578125 L 10.59375 -9.578125 L 10.640625 -9.484375 L 10.921875 -9.484375 L 10.96875 -9.40625 L 10.921875 -9.40625 C 10.953125 -9.363281 10.976562 -9.3125 11 -9.25 C 11.03125 -9.1875 11.0625 -9.128906 11.09375 -9.078125 L 11.140625 -9.078125 L 11.296875 -8.75 L 11.453125 -8.75 L 11.5 -8.59375 L 11.265625 -8.59375 L 11.296875 -8.5 L 11.328125 -8.5 L 11.375 -8.34375 L 11.328125 -8.34375 C 11.328125 -8.332031 11.328125 -8.320312 11.328125 -8.3125 C 11.335938 -8.300781 11.34375 -8.285156 11.34375 -8.265625 L 10.65625 -8.265625 C 10.675781 -8.210938 10.6875 -8.164062 10.6875 -8.125 C 10.695312 -8.09375 10.707031 -8.054688 10.71875 -8.015625 L 11.578125 -8.015625 C 11.585938 -7.972656 11.59375 -7.929688 11.59375 -7.890625 C 11.601562 -7.847656 11.609375 -7.804688 11.609375 -7.765625 L 11.375 -7.765625 C 11.382812 -7.722656 11.390625 -7.679688 11.390625 -7.640625 C 11.398438 -7.609375 11.40625 -7.566406 11.40625 -7.515625 L 11.625 -7.515625 L 11.65625 -7.203125 L 11.4375 -7.203125 L 11.4375 -7.140625 C 11.4375 -7.128906 11.4375 -7.113281 11.4375 -7.09375 C 11.445312 -7.070312 11.453125 -7.050781 11.453125 -7.03125 L 11.90625 -7.03125 L 11.90625 -6.953125 L 11.5 -6.953125 C 11.507812 -6.929688 11.515625 -6.90625 11.515625 -6.875 L 11.8125 -6.875 C 11.820312 -6.8125 11.828125 -6.753906 11.828125 -6.703125 C 11.828125 -6.648438 11.828125 -6.597656 11.828125 -6.546875 L 11.34375 -6.546875 Z M 7.75 -5.96875 L 7.90625 -5.96875 L 7.90625 -6.296875 L 7.078125 -6.296875 L 7.078125 -6.546875 L 7.578125 -6.546875 C 7.578125 -6.597656 7.578125 -6.648438 7.578125 -6.703125 C 7.578125 -6.753906 7.570312 -6.8125 7.5625 -6.875 L 7.265625 -6.875 C 7.265625 -6.894531 7.257812 -6.910156 7.25 -6.921875 C 7.25 -6.929688 7.25 -6.941406 7.25 -6.953125 L 7.640625 -6.953125 L 7.640625 -7.03125 L 7.203125 -7.03125 C 7.203125 -7.050781 7.195312 -7.066406 7.1875 -7.078125 C 7.175781 -7.085938 7.171875 -7.097656 7.171875 -7.109375 L 7.171875 -7.203125 L 7.375 -7.203125 C 7.375 -7.253906 7.367188 -7.304688 7.359375 -7.359375 C 7.359375 -7.421875 7.351562 -7.472656 7.34375 -7.515625 L 7.125 -7.515625 C 7.113281 -7.566406 7.101562 -7.609375 7.09375 -7.640625 C 7.082031 -7.679688 7.066406 -7.722656 7.046875 -7.765625 L 7.28125 -7.765625 C 7.25 -7.859375 7.203125 -7.941406 7.140625 -8.015625 L 6.296875 -8.015625 C 6.242188 -8.097656 6.15625 -8.179688 6.03125 -8.265625 L 6.71875 -8.265625 C 6.65625 -8.304688 6.609375 -8.332031 6.578125 -8.34375 L 6.625 -8.34375 C 6.457031 -8.40625 6.273438 -8.4375 6.078125 -8.4375 C 5.878906 -8.4375 5.703125 -8.40625 5.546875 -8.34375 L 5.0625 -8.34375 C 5.019531 -8.332031 4.96875 -8.304688 4.90625 -8.265625 L 5.359375 -8.265625 C 5.273438 -8.203125 5.1875 -8.117188 5.09375 -8.015625 L 5.125 -8.015625 C 5.070312 -7.941406 5.03125 -7.859375 5 -7.765625 L 5.046875 -7.765625 C 5.035156 -7.722656 5.023438 -7.679688 5.015625 -7.640625 C 5.003906 -7.609375 4.988281 -7.566406 4.96875 -7.515625 L 5 -7.515625 C 4.988281 -7.472656 4.976562 -7.421875 4.96875 -7.359375 C 4.96875 -7.304688 4.96875 -7.253906 4.96875 -7.203125 L 4.9375 -7.203125 L 4.9375 -7.03125 L 5.125 -7.03125 L 5.125 -6.953125 L 4.875 -6.953125 L 4.875 -6.875 L 4.140625 -6.875 L 4.140625 -6.546875 L 4.75 -6.546875 L 4.75 -6.296875 L 4.875 -6.296875 L 4.875 -5.96875 L 4.765625 -5.96875 L 4.765625 -5.640625 L 4.859375 -5.640625 L 4.859375 -5.390625 L 4.875 -5.390625 C 4.875 -5.359375 4.878906 -5.332031 4.890625 -5.3125 L 4.5625 -5.3125 L 4.5625 -5.234375 L 5.125 -5.234375 L 5.125 -5.0625 L 4.796875 -5.0625 L 4.796875 -4.8125 L 4.859375 -4.8125 L 4.859375 -4.734375 L 4.734375 -4.734375 C 4.734375 -4.679688 4.734375 -4.625 4.734375 -4.5625 C 4.742188 -4.507812 4.75 -4.457031 4.75 -4.40625 L 4.984375 -4.40625 L 4.984375 -4.359375 C 4.984375 -4.316406 4.984375 -4.269531 4.984375 -4.21875 C 4.984375 -4.164062 4.988281 -4.117188 5 -4.078125 L 4.890625 -4.078125 C 4.898438 -4.054688 4.90625 -4.03125 4.90625 -4 C 4.90625 -3.96875 4.910156 -3.941406 4.921875 -3.921875 L 5.015625 -3.921875 C 5.023438 -3.859375 5.039062 -3.800781 5.0625 -3.75 C 5.082031 -3.695312 5.101562 -3.644531 5.125 -3.59375 L 5.046875 -3.59375 C 5.109375 -3.46875 5.195312 -3.359375 5.3125 -3.265625 L 5.34375 -3.265625 C 5.363281 -3.253906 5.382812 -3.238281 5.40625 -3.21875 C 5.425781 -3.207031 5.445312 -3.195312 5.46875 -3.1875 L 5.625 -3.1875 C 5.65625 -3.164062 5.6875 -3.144531 5.71875 -3.125 C 5.75 -3.113281 5.78125 -3.101562 5.8125 -3.09375 L 5.625 -3.09375 C 5.75 -3.050781 5.898438 -3.03125 6.078125 -3.03125 C 6.253906 -3.03125 6.410156 -3.050781 6.546875 -3.09375 L 6.8125 -3.09375 C 6.851562 -3.101562 6.890625 -3.113281 6.921875 -3.125 C 6.953125 -3.144531 6.984375 -3.164062 7.015625 -3.1875 L 6.75 -3.1875 C 6.769531 -3.195312 6.789062 -3.207031 6.8125 -3.21875 C 6.832031 -3.238281 6.859375 -3.253906 6.890625 -3.265625 L 6.703125 -3.265625 C 6.796875 -3.335938 6.882812 -3.445312 6.96875 -3.59375 L 7.109375 -3.59375 C 7.171875 -3.707031 7.21875 -3.816406 7.25 -3.921875 L 7.078125 -3.921875 C 7.085938 -3.941406 7.09375 -3.96875 7.09375 -4 C 7.09375 -4.03125 7.097656 -4.054688 7.109375 -4.078125 L 7.203125 -4.078125 C 7.210938 -4.117188 7.21875 -4.164062 7.21875 -4.21875 C 7.21875 -4.269531 7.21875 -4.316406 7.21875 -4.359375 L 7.21875 -4.40625 L 7.25 -4.40625 C 7.25 -4.457031 7.25 -4.507812 7.25 -4.5625 C 7.25 -4.625 7.253906 -4.679688 7.265625 -4.734375 L 7.25 -4.734375 L 7.25 -4.8125 L 7.71875 -4.8125 L 7.71875 -5.0625 L 6.9375 -5.0625 L 6.9375 -5.234375 L 7.390625 -5.234375 L 7.390625 -5.3125 L 7.265625 -5.3125 L 7.265625 -5.390625 L 7.609375 -5.390625 L 7.609375 -5.640625 L 7.75 -5.640625 Z M 7.75 -5.96875 "/></g></g></g><g fill="#222222" fill-opacity="1"><g transform="translate(33.840912, 29.757219)"><g><path d="M 1.546875 -3.078125 L 0.34375 -3.078125 L 0.484375 -3.78125 L 3.78125 -3.78125 L 3.640625 -3.078125 L 2.4375 -3.078125 L 1.8125 0 L 0.9375 0 Z M 1.546875 -3.078125 "/></g></g></g><g fill="#222222" fill-opacity="1"><g transform="translate(36.925599, 29.757219)"><g><path d="M 1.9375 0.0625 C 1.46875 0.0625 1.097656 -0.0507812 0.828125 -0.28125 C 0.554688 -0.519531 0.421875 -0.847656 0.421875 -1.265625 C 0.421875 -1.378906 0.429688 -1.515625 0.453125 -1.671875 L 0.875 -3.78125 L 1.765625 -3.78125 L 1.34375 -1.6875 C 1.320312 -1.5625 1.3125 -1.453125 1.3125 -1.359375 C 1.3125 -1.128906 1.375 -0.957031 1.5 -0.84375 C 1.625 -0.738281 1.800781 -0.6875 2.03125 -0.6875 C 2.300781 -0.6875 2.515625 -0.765625 2.671875 -0.921875 C 2.828125 -1.078125 2.941406 -1.332031 3.015625 -1.6875 L 3.4375 -3.78125 L 4.296875 -3.78125 L 3.875 -1.625 C 3.644531 -0.5 3 0.0625 1.9375 0.0625 Z M 1.9375 0.0625 "/></g></g></g><g fill="#222222" fill-opacity="1"><g transform="translate(40.930286, 29.757219)"><g><path d="M 1.65625 -3.078125 L 1.453125 -2.078125 L 3.203125 -2.078125 L 3.0625 -1.375 L 1.3125 -1.375 L 1.03125 0 L 0.15625 0 L 0.90625 -3.78125 L 3.78125 -3.78125 L 3.625 -3.078125 Z M 1.65625 -3.078125 "/></g></g></g><g fill="#222222" fill-opacity="1"><g transform="translate(44.128625, 29.757219)"><g><path d="M 2.84375 -0.8125 L 1.09375 -0.8125 L 0.59375 0 L -0.34375 0 L 2.109375 -3.78125 L 2.96875 -3.78125 L 3.90625 0 L 3.03125 0 Z M 2.703125 -1.46875 L 2.390625 -2.9375 L 1.484375 -1.46875 Z M 2.703125 -1.46875 "/></g></g></g><g fill="#222222" fill-opacity="1"><g transform="translate(48.014251, 29.757219)"><g><path d="M 0.90625 -3.78125 L 1.796875 -3.78125 L 1.03125 0 L 0.15625 0 Z M 0.90625 -3.78125 "/></g></g></g><g fill="#222222" fill-opacity="1"><g transform="translate(49.529542, 29.757219)"><g><path d="M 0.90625 -3.78125 L 1.796875 -3.78125 L 1.171875 -0.71875 L 3.078125 -0.71875 L 2.9375 0 L 0.15625 0 Z M 0.90625 -3.78125 "/></g></g></g><g fill="#222222" fill-opacity="1"><g transform="translate(52.538466, 29.757219)"><g/></g></g><g fill="#222222" fill-opacity="1"><g transform="translate(53.810227, 29.757219)"><g><path d="M 2.84375 -0.8125 L 1.09375 -0.8125 L 0.59375 0 L -0.34375 0 L 2.109375 -3.78125 L 2.96875 -3.78125 L 3.90625 0 L 3.03125 0 Z M 2.703125 -1.46875 L 2.390625 -2.9375 L 1.484375 -1.46875 Z M 2.703125 -1.46875 "/></g></g></g><g fill="#222222" fill-opacity="1"><g transform="translate(57.695852, 29.757219)"><g><path d="M 3.9375 -2.609375 C 3.9375 -2.253906 3.835938 -1.953125 3.640625 -1.703125 C 3.453125 -1.453125 3.191406 -1.273438 2.859375 -1.171875 L 3.515625 0 L 2.59375 0 L 2 -1.0625 L 1.25 -1.0625 L 1.03125 0 L 0.15625 0 L 0.90625 -3.78125 L 2.453125 -3.78125 C 2.921875 -3.78125 3.285156 -3.675781 3.546875 -3.46875 C 3.804688 -3.269531 3.9375 -2.984375 3.9375 -2.609375 Z M 2.125 -1.75 C 2.414062 -1.75 2.640625 -1.816406 2.796875 -1.953125 C 2.960938 -2.085938 3.046875 -2.28125 3.046875 -2.53125 C 3.046875 -2.707031 2.984375 -2.84375 2.859375 -2.9375 C 2.742188 -3.03125 2.570312 -3.078125 2.34375 -3.078125 L 1.65625 -3.078125 L 1.390625 -1.75 Z M 2.125 -1.75 "/></g></g></g><g fill="#222222" fill-opacity="1"><g transform="translate(61.413718, 29.757219)"><g><path d="M 2.140625 0.0625 C 1.765625 0.0625 1.4375 -0.00390625 1.15625 -0.140625 C 0.875 -0.273438 0.65625 -0.46875 0.5 -0.71875 C 0.351562 -0.96875 0.28125 -1.253906 0.28125 -1.578125 C 0.28125 -2.003906 0.375 -2.390625 0.5625 -2.734375 C 0.757812 -3.078125 1.035156 -3.347656 1.390625 -3.546875 C 1.753906 -3.742188 2.164062 -3.84375 2.625 -3.84375 C 2.96875 -3.84375 3.265625 -3.785156 3.515625 -3.671875 C 3.773438 -3.554688 3.972656 -3.390625 4.109375 -3.171875 L 3.484375 -2.65625 C 3.273438 -2.957031 2.96875 -3.109375 2.5625 -3.109375 C 2.289062 -3.109375 2.046875 -3.039062 1.828125 -2.90625 C 1.617188 -2.78125 1.453125 -2.601562 1.328125 -2.375 C 1.210938 -2.15625 1.15625 -1.90625 1.15625 -1.625 C 1.15625 -1.332031 1.25 -1.101562 1.4375 -0.9375 C 1.625 -0.769531 1.882812 -0.6875 2.21875 -0.6875 C 2.625 -0.6875 2.960938 -0.832031 3.234375 -1.125 L 3.75 -0.59375 C 3.375 -0.15625 2.835938 0.0625 2.140625 0.0625 Z M 2.140625 0.0625 "/></g></g></g><g fill="#222222" fill-opacity="1"><g transform="translate(65.12076, 29.757219)"><g><path d="M 4.390625 -3.78125 L 3.625 0 L 2.75 0 L 3.0625 -1.546875 L 1.34375 -1.546875 L 1.03125 0 L 0.15625 0 L 0.90625 -3.78125 L 1.796875 -3.78125 L 1.5 -2.296875 L 3.21875 -2.296875 L 3.515625 -3.78125 Z M 4.390625 -3.78125 "/></g></g></g><g fill="#222222" fill-opacity="1"><g transform="translate(69.233685, 29.757219)"><g><path d="M 0.90625 -3.78125 L 1.796875 -3.78125 L 1.03125 0 L 0.15625 0 Z M 0.90625 -3.78125 "/></g></g></g><g fill="#222222" fill-opacity="1"><g transform="translate(70.748977, 29.757219)"><g><path d="M 4.546875 -3.78125 L 2.15625 0 L 1.296875 0 L 0.421875 -3.78125 L 1.3125 -3.78125 L 1.9375 -1.09375 L 3.640625 -3.78125 Z M 4.546875 -3.78125 "/></g></g></g><g fill="#222222" fill-opacity="1"><g transform="translate(74.526369, 29.757219)"><g><path d="M 1.640625 -3.078125 L 1.484375 -2.265625 L 3.234375 -2.265625 L 3.109375 -1.578125 L 1.34375 -1.578125 L 1.171875 -0.703125 L 3.234375 -0.703125 L 3.09375 0 L 0.15625 0 L 0.90625 -3.78125 L 3.78125 -3.78125 L 3.625 -3.078125 Z M 1.640625 -3.078125 "/></g></g></g></svg>